<mxfile host="app.diagrams.net" agent="Mozilla/5.0 (X11; Linux x86_64; rv:137.0) Gecko/20100101 Firefox/137.0" version="26.2.13">
  <diagram name="Page-1" id="45XxHVgS9y430mEBiqNv">
    <mxGraphModel dx="1428" dy="754" grid="1" gridSize="10" guides="1" tooltips="1" connect="1" arrows="1" fold="1" page="1" pageScale="1" pageWidth="850" pageHeight="1100" math="0" shadow="0">
      <root>
        <mxCell id="0" />
        <mxCell id="1" parent="0" />
        <mxCell id="bh7TPUg2LEr0Y-XiBr-3-1" value="" style="shape=image;verticalLabelPosition=bottom;labelBackgroundColor=default;verticalAlign=top;aspect=fixed;imageAspect=0;image=data:image/png,iVBORw0KGgoAAAANSUhEUgAABTUAAAPiCAAAAACLCWbkAAD4W0lEQVR4nOyddVhc19aH3zOCOyFClAhxd0/j0iTV1N29/dre2q3euty2t+6aSto0TePu7q5EkOBuo2d/fwwkBAYYYGCE/T59mmGOrZHzm7XXXnstRSCRSCQSh9G42gCJRCLxKKRqSiQSSU2QqimRSCQ1QaqmRCKR1ASpmhKJRFITdK42QCKRSBwkP91CWLjexVZI1ZRIJB6B5djf85PAp/eDl2hdaogi8zUlEon7I3IO/TS7SABK5HP3+LvSFOlrSiQSD6DghY9LHons/SltXTkjI2eDJBKJB7Bm4fmH1u9+K3ahJdLXlEgkHoDYlQuKT/9mqZuBArMrbZGqKZFIPICHDv9Jq/53d9+wGVBcaopUTYlE4v4oYU8NMnfp0iYwytWWSNWUSCQega5fN9VPBwJA41JnU6qmRCLxBDQBAGgBrC7NmJRz6BKJxIOwgqt9TamaEonEgzCBVE2JRCJxmGRAH+zSJZVSNSUSieegbgYi2/i60gapmhKJxHMo2gu0bCl9TYlEInGI7DNATHMZ15RIJBKHyC0AQgNcaoNUTYlE4jmoAHrX5plL1ZRIJJKaIFVTIpF4DhoAq+p6GyQSicQjUMHVSe5SNSUSiaehSNWUSCQSz0GqpkQi8RxcG9G0IVVTIpF4DsUg45oSiUTiMKeAwBYubewrVVMikXgQ21Twb+LS4h1SNSUSiedQdAxo0lquDZJIJBKHKMgQ0KKla42QqimRSDyGvBQgKMS1RkjVlEgkHoNZADq9a42QqimRSDwLjYtlS6qmRCKR1ASpmhKJxGPQKIBqdbERrr28RCKROI4QgCJH6BKJROIYAlxe8kiqpkQikdQIqZoSicSzEMK115eqKZFIPAatAljlbJBEIpE4RmAYUFToWiOkakokEo8hKFKB7AzXGiFVUyKReAz+LYGsVNmjUiKRSBzCJ1aBnFSLS42QqimRSDyHHgoUJBtdaoNUTYlE4jl09QFzUq5LbZCqKZFIPIdmUSASMl1qg1RNiUTiOYS2A+JTXJrnLlVTIpF4Dj59gMwUl04HSdWUSCQexAAF8hOKXWmCa3u9SSQSiR0MRTkmoSgqGlH6DxqhCQkO6BRYgOV0gStbB0nVlEgk7kN+apFqSNp5MCnZXugyLLpjx7ACOJYb3eCWXUBxcfUQiUQiAbCaCjP2/bUxGUrKaFZB84/HBuhdFl6UqimRSFyOyE2K2795d7qDSyWVmGHDO7WMCPbR1q9ZlVxdqqZEInEthqST6xYdNdXoGCW4W+9uMa2bh/k0uM8pVVMikbiWtH+Wbb4ojOkTFNYqQlexz4UlPzkjy3zhb23TTl1jYju0CWrY+RmpmhKJxKWYfn3pTOljn869QjSaiKYt2kTaUU1z/rmksyfWpJR9zqdV+479prasfzMvIFVTIpG4EvP8l45ZADRNu/eJ7domQFF8fe1Ipg2LMeHdbwB9WZez+bQHuzVghFNmHkkkEldiOXIIIGDAVT2jI4N9qtlbp2vVEeCR6O27zpQopzVp9uZBt/cNqFczy9rQUBeSSCQSO/jedHa2gRkTpjdzbF5H0QH0m3Fz1tk9G7bbZt0LDx5f1PHxy+vTzDJI1ZRIJK5E0+6BxF33/Vvn6FS4rRu66h8Y2XHswzmn1y48VGABU2ra8T13NavOVXUKMq4pkUhcTE5RU8f9N8P3D1ngvw+XBjINe95am2fTsU6PXxHZAHlIsnqHRCJxMWHRNRj06ls2AXadr3rkN/T9x8a10QGcePaDhqi8KUfoEonEk9A0b5UCW/Oizj8T82zquo0rTwLZ30TdFVjvFsgRen1iLihWNUIX7CddeonEWSQ8/6NAv3rERU8WLX1nlxlofv//1btsSl+zfhBFuYb8w7vPFAvQRvUfHhwaone1TRKJVxARqzdhXnCxagZcFr3k63OQ8ukd9a6a0tesDwqPLNiTajVnZxUJAH1EM71/j1mjXFJpQCLxMtR5/xcPPbYEXfy0yP7hrTSBbuo3TerZAOlrOh3jyYULzuYUWy88Y05NRdm5dNLdveTbLZHUFU2PXvGQsPdiZxMl4tqELwux7EiVqulZFMav/PmwwVrRgxeGs99tfX5CkIxwSiR1pE335SaK5w4vv+oytHNEIQiz3YOciFRNZ2JNfvXnwgt/av1D/RQw5BSpgDDtu33Wvb1KwpuGOLVJC5cYKZF4OP4DWsdhOZB/cRcMUXBs8zkgvGl9X1+qptNQC+OPfrmypKqqrlkzX01EtxFtdUIkrDmQZ4zLVSHv97ifbMVZ1Hn3GO9/R777Ekkt6NY6DjU+9SLVFPsXf3VGgM/M0Pq+vLxvnUXO5p1rttk652maduk0tHeIPjREA9B9Ql5u/p//HDZB/sbZY3r7gmX10/lsWz2iweoNSCReRHggYDjdqcxThvVvbDIDmtix9Z6tIlXTOYi0b388aVutENynX6/+HctmP2jDw2k35M9/MgXmFy75v5F+5gMvJsCW33tK1ZRIak5wM72Z3E3jSrNSLOnbts8/DOB/zdSh9b4WXaqmUzDMm7MpHQD/cVf07BhScc4neFJs5OxkgXFDy35+1hWHBeibBVXYTSKRVEtAn4VpFO7JjbD9mTBny/7TFoCAMY/0qv8JV6maTiHzzQO2afOI2+9pZ/891bR7bPRr21SKFphv7bSqEGg7QKqmRFILNOO+TcOalRcBYD307pIs23xCzH3TYhogS0WqphMw/G/2YQEQe/eYDmGV7aVtMWz8yQwh0v44rNtvBU3/oZXVq5ZIJFUR8+yDaa2ejAIwPj0v1QBA+K23x9T/InTk2iAnYMn/9H/pAjTdnp8QVGnhfgCR/tE3KQI0qED712dJ1ZRIaoV11rqJP2mExZD67N8WAK1fuyev0zfMHSVVs66Ylv97H6AED3x0cvWe+4mBuSWPAu99Q65Ml0gcQTUL0JW7vSz5qXE7V+w0Avg1G/DAoAbxM0GO0OtMwcH5RwH8r3st0oHdm0SV1E/VDn5YiqZE4gjpe86a0LSIDY/wueBMntyzecmpkmVAIVOe7CO7rXkM6uGH91iAjlNnhVS7M7D6XIlzH/Jgm3o0SyLxIlY8kQwE9+/Uq2usP4pQENaj7y8zlGz27znpxtiGtEeqZt0oXrDfAkq7V65yyHNUjxSVPBo+pWYX+ieu6+Qa2iaReAWHfkoByF+71r9Dr2BbVNGyoyRrBSVi2j0DGqRd0HmkatYJMe8HI2hvmTnZseH28riSBz6P+dXoQulv7B8xssHiNhKJ+yCU8zdX8cGDF2/TRncdGDu8QwNbJFWzThS+mwSazjePcCyosu7VrSWPxgyt0XVy/73XsOXfz9V3BSyJxP1QYq/amWx3S/i4S2JbtQhscBGTqlknDh5UIealQQ6JpumnD46VVN2sqau5drmB/J35UjUljRDdZV3OGAzbD267+Omga+9qE+ZYC3VnG+SCa3oP4hsr6K+f4u/AvtbtL683lOZ59e1do8Qy8+YM8I2t9wpYEok7EjKwvxA3FZ3c/feu84UYle633+rnooRnqZp1IW0V0Lq/IwsjRfaqdQbAPygdmBhco+vkHy2AsFEyrilpnCha0PtHDr4zM92kURVAiWjqiK9SP0jVrAsbs0Dp39eBPS17/nwboMWVnR8Comr2vhcYgaBeNTdQIvEm9M2bu9oEkKpZJ8yLiiGwuyMf5I67DwNK1FN3/QFQw5FFRh6glbU+JBJ3QKpmHUg7bIbWA6vPFSta9tlBgHGXXa9TAWoWwrZsOgmaphG1sVEikTgZqZp14Ei6QNOuuoGzyN2wYvFpQD/12X46kwKg1uQy1r0LMkE/IqyWZkokEmciVbP2qLtzwL9LVNU7pa+bv/OMCaDddX1K3+4ajdCN67aoEH6DbKcukbgDUjVrj+FUEYT2qXKAbvn418QME4D/FU/G6AEBNRqhq4c+XFYAXNa19pZKJBLnIVWz9uSfMUJw56r8Rst7rxTbcjTDn74rTIESwbQ4fhXj/t8KgagnpKspkbgFUjVrj9EkQFd55qXIP/PMMiuAPjT68ZtLnq3ZbJAaf/MmFZRW91YdCJBIJA2FVM3ao1EA1VzZZnPCl19nAvi1GnDdiNIJcEUHkGV17BLJB9/fACiR/50pq3FKJO6BVM3aExCitZJ3sIfdobPI3PjzsgJA12HcZUOCzg/jNVEBRbD8NkfW+VhPffRjLqDtOaOnHJ9LJG6CVM3aE9zJv4CMlZeG2tlWsGLV4tMAfuPunFy2UoemVbedsOd0y+qn0VOW/LMmFyD6wRtqVuxDIpHUH1I1a49+xO8FGNe9N7NXudGzpXDvgvknAdBMe6HHRUFMpdWkPVaKtwyvTjXV+M9+TAEIGHvtyIYtuiqRSKpAqmYdGNQ+UeXMxz4x4eclUBRnJxw9dvLECVvN9mG3j+hc7qDgQVEpqKse8a363OLD+fuzAXyveaqTK6phSSQS+0jVrAMhMw9mIHI+XT9mZLhGUYTVEL/jxNmcgsIi22RPs3uv7lTBS9S27ZICOzKjqzx13n8/zgRg6CvdW9SD6RKJpLbIzr51QBj2jisGtL5+GlAEwmIyW0vbmegGPT0m0M44POP1/1lRHv1vFect/PHjM8UAmkkft5OOpkTiVkhfsw4o/h1uXJSiYi0qKr9JGz7swZH2p3BCOwXlIuY83K6Ss1rSNn2+yQigH/ryCPkBSSRuhvQ164Z13YOnjBc/pfj4B4e2umV6pblFB55cLvC55vVou15k4aY3NpkBdNEjHx3gTFslEokzkK5M3dD0fGHZkXNZRSU/Pr4BYVGRLdt16d66inzMzuN2ZgnT/IhXKnZQt2Qf3v7NMQD8hjw8ReYbSSTuh/Q164rIP3HgVIIBhIK2abO2HaLD/KpJST/6yvwilE73TOl8sbdpiduwd8VxAPz7jppRszaWEomkYZCq6QRUc4FtlK4N9HVo4ePGh/epEDrzsR4XfH1hSli9ZGOm7fPoeM20ftWkJkkkEtcgVdMVFPznyxwguOfgKW21GgFCLTi468CxVFstpBazpg0MdVH7PYlEUg1SNV2BmrLvxmwBBDQvyU0Sltyckppy2q4PXx4h040kEndFqqZryPvXF/Y3+E26rXdzOQskkbgvUjVdhHrs8TXGcm++4tvqursdKOshkTROhChXYlHRuuJ2karpMuI/WXUu+4Jw+gSGNRl1e2dZEU4iKcVquqgvYXHKuQyrUBAoCAWhiKCOESE6nb6BpVOqpuswJ6/fcqq45A9dm9gBPZrI9FmJxIbFkJt56mzZot8icd0xQ7m9esb2Cgpv2z5U71j2inOQqulSTDmFCEUo4BPuK91MiQQAY4H55IGkc6eOpDmyt77twGj/5j17BTfUHSRVUyKRuBOm08f2nTYfO5pfo6OCuvTrOKyNBgLD6sesMkjVlEgk7kPW+r3rks/VTDFtKKEdmijgN7ltl6YBTrfroitJ1ZRIJO5BQfLav45m51a6PWjA2HCNAEWgCBRL4tFNWRV2ahYU2nnU6E71OEcgVVMikbgDlsOLl8QV5pfNLeo+aGCEVkVBoFEV4RcdHXpR7NJsjD9jzV64MbvcqfSBkZc/2rLeLJWqKZFIXI1qLN7x2/qzaokc6Xz0+s6XDwxtE6JcnFRUIcVIgLBkJ+fumne00Fg2TUnj99C9TX3qJ51TqqZEInEpwpITt2jz6tI/daHBgwb2j2lRs/I1xsRf1qRYEUVFpY6nEjVrVIdmQf7Ob1UoVVMikbgQkX/k5PolSaV+om9MjxF9+wXV5kSFmUXCHHd6SW5mRulsUvtePdoOjGrm5JQkqZoSicR15O1ZN/9wae56cKvOHcYNCa/bGdMTjx/csC/3vLKN7H354CqKhNcCqZoSicRVWDf9s/ZQqWaGdx09rFcLZ6zxMRzZsGxtaTMvjW/3S4f1bOrEMmJSNSUSiWvI37Fi5YGStlu6/p1H92wf4azZG8vxbXPWn2+CGNJ+6M29nJfDKVVTIpG4ADV+/YodSYU2AQodMat/WBOnti+wnD6+f/vueNsfSmDbTlde46yl6lI1JRJJw6PufWlHdknjmDa3Tmkd4fypbquhMOXYxr9LhFMX3v/aCU2dkvsuVVMikTQ0IvXjb1NVAMUn5rIZffzqqdabENaiN39ONwkAjS545MMDA+oe4JSqKZFIGhaRd/LFFWYBENLiynva1O/V1FPfLzxdUJLZFDLt/kF19mqlakokkgbFGjfnh1MqoGvSZuqI4fXf70U99tvWIym2Up26rs8Ni65j/qZUTYlE0oCIrB0/Lc0WoIQMvXRsbMPUxLRmLP7r2Anb44grbhxcN6WWqlmvmPKNigChlL7RPiHOD3pLJJ6DGj/n9wNmQNtm5s09G655gfn48bVxOzJUUHz7XnVpx7pEN6Vq1hOiIM+Ud2DfWWPJO1zyj65trz4hfqEBsqWapHES/8lvyWbAf9RdQ1o0aANrkZe47Nf9JkCJGDZzSvPaX1yqpnMxZBcIRShqwpqDGVZTRmZx+ffXP6Kpj7bpsPGBGqENDZV9giSNi/S3fklVgfDbbu7e4N9+kXf027lZAtC1m3Zfp1rLplRNp1CUWoxAMW3454wKQhGm3GJr5btrg0M1CoR2n9TVX+giw6R4ShoHWe98nSlA0/PtgaEN6miWoCbP/eSEADRhM15sV9uzSNWsG8JSnJ6etHLDWdv7aDGr1RxQFkWj14ISNOyuIYE6OWaXeD1FP71yDvAb9tJQV3kK5vy3v8yzAoHT325Vy5tOqmatEVarmn9i3d9VdIXS+oeUa9VstuuD6rpdf0mHMNmjUuLdiLPXbVdRAkc/PbgB+/BWsOLAc2uKBOimvtIhsFa6KVWzloicU2czirfML9+fuRT/yEgfbZMeY1poFYEiFKEIFKGmrzmQas1PyavgkgZde3nHaCcsW5BI3BXLmbd/KYSgMf833KWZJNYD7y7JFqDp8NR1tSrpIVWz5qjGYkv20W3LjhRX3BbSoYUC4BPTu0ewT3hQBRkUBdnGhM1HcwWYUpJyLzieSsjgUf37R0rdlHgp1kMfz80Cv7FPDHNqmY6aY9n78dIMK2iH3D+0TS2GeFI1a4r1zKZjOebUPUll3EX/lj1CFUWg+MUMiNEA+IVV9WtqLchXwXD28Ol8lby9Z0u0U9vxkoHDYlz8jZJI6gORteGXFbkCTc/3Rrt89tN88Nc/z6qgNH/21lqUjZeqWRPM+fmZa9buTbFceEoJ79c5NLp9p0BFEQo+wTX6QliKDCqFh/Zs2p5n+xw0TXt1v2yw1E2JtyESfpx7yAw0ue8p5xZWrxXW5E2fbzKDps+0W2NqHNuUquk4ResWHjMUx2eWfctaT5vWIdK3bg2d1MLEE/PnFJT85Rc77MZBLoyVSyT1QOo7v6VagLApz3Vxi2lPy9E1T5iAkJFv9KzpsVI1HULkZaRvW3I4o2wkUzdgZouwmOhwZ3wHrFkn1v16pMSF9Ysee18vlw9iJBIncnBshgDC7r6rnbt8tU/ftdYK6KfOqanTI1Wzeiy5e77fnqZazrdb1urQxUy4okuIRtE4K81SmPK3/m+LwSoA9MED7xwd7i7fLomkjmS9+32KAF2fdwb5u01ispq76JFsAbonXq+hTVI1q8FckLzo8zNlZn40/lETro4MjfZ3/rWMJ/9YeDq75BNp+tCNTd3nGyaR1Bo178itJwQEjnp2iDu5Amr8V78kWqDdyg41O1CqZpUY4/avudCqGU10lDZk0DU96u+jz/9l9rF022ei7/3EjHqQZomkgcn93ydpAqXZpDsGu1nFL3X5M/sEvrNebVWjjD+pmlVgOrLxz03m0r/04e1jpgz0CQut32B22pyle1JUAP0ltw5v6RaRc4mk1liTNn+0VYWgW16OdLUtFTC9924WhNz1YnBNjpKqWRkia8+uFRtMtj/0nTqHRHbs3yW4AYbMasKKbXuOFAFETb5sXGj9X1EiqT+KZ790TkCTu6YNcMOUuqMv/VOM0uWeCbE1GEBK1bSPmrZm1c4TJf2U9YNn9m4fFNhg6x2tWUd2/bhPAJoOI66a6E6hIImkRoiEP/7aqoJ+xkctXG2LXTbef1CgNLnpgXaO395SNe1jXPDiSZufqWk5YUTfLvXf2+RiDAdWvpEPoOk86dq+bhYNkkgcRV19c4oAn7fGx7rnt7jgpS/zQWn3/jTHvRPpx9ijcNU3+xKtAEqbO6a1qnJ1ZP3gN7DJyT/zAPXoOWMX9/y+SSTVkfXe3BQB2qFTY11tSiUEPDnqGgMi/s8BLR0+Rvqa5RFq7pyPEwqtgKJp8uj1TX1dk/6jFmx/fbNJAAF9H5sqJ9MlHkjGe19lAr5vXh/pvtOa5+5bbIHgueMcHqJL1bwYS9qRv+al2HrOR3S/d2qIK40xrvhwR54A3V2PtW7oEIFEUmeKv389EZSwMU8OdOdBbcL9iwRM+y7K0QOkal5E0aZ31xltD3VtXrza5R5e7rd/brOCtuc7Y9z5ayeR2EGNu2e9FYIfftK9E0HUjdekgM8chyObspxjGcy7Pn14uU00fWMvf/oS1ydKhD72fYwGrAf/2VDkalskkhqhJn60ywqBo8e6+UBJ0+UKDZheOGKpfl9AzgaV5fCq3zfZHumGjBw8pKlbLGds/u9/5luxfLp+jruG0yUSu5hXLswH39FPDHG9+1E1TS5dchoO/93BQTmUqlmKccuny3MBaD6mzyW93eWDDr6x5eHjKtZDr06T6yslHoR6+K8EgdL+ieFuLzKavlO/MmFZcp+D/TDc/gU1DGrW5gXbjxsAml0zsXsLd9FMQNPvw2//tGKZvS35zlqUnZZIXIJ69oeNFgi43K0ngkqIGLXsJBxPaeLY7h7wihoA68dzElONAJqOj14d4VbBXiViRPLuOBU17psWV7uVZRJJ5agH5+YBI++uVT+zBkY/uO9JKJrT0bEIrLwNQWQ/8u8t8UaAoMeX3dbE3d4T/1mLrvIB65E58a42RSJxDHH8wyQBke+2cbfbyR5K8+7BYPhrjdGh3T3hJdUvouCNDp8UCEAJuin+7XbuN9+n+Le5e2IgWFfOzjBXv7tE4nLEvofWCAi8r6VbzKlWi++YjgoiaadjiZiNXTVF/r4X/5sN4Ntm6ItfhLvaHvv4jvtrlgbyXr/7oLX6vSUSV1M4d4sK2ml3hbnaEgcZMMwfctblOLRzY49rmtc+dwDAJ3bI1OFuNza/gP7xVYkqRcs6qT3lonSJ22NaWwyajvc6vrbbxfhMWnwachKaO7Kz++pEg5D127fHAHzGvf/x5U3d+c3o/GAoUPT+v7NdbYlEUh3mLVuByKtj3fmWugj90BgNnNutVr9rY/c1cz79NEUA3W8e19/VtlSD7raCb5ME5nVz75TOpsTNMXxvBYZc2dwzopoAYYO3FpG5Ly/MgX095regHrD8dttHyQKUrm886u6iCZGPfHyFBoo/ynS1JRJJNWzZKqD5pFj3LXRUAd24ADAdOurIxEHj9TXNu75fGi+AgMeu6OEB7psSMblgRzycvPn6q2rU5EQiaWDMf2eApn1XvasNqQldfYHkhAEO7Np4fc3i336NFwBDpvf2ANEEfKZe7QeWtXNlIQ+JW5O1xwjhUz1hVdAFQsYqcHqfwYFdG6tqGv4Y+UmeAF2P35YM8pBxhBI0bYw/WJbOXGxytS0SSaWIxfECpfetDdGb0HloeitgyXTEJWmkqll4dN1hCyhRl/7vGh+P+Wz1l3w3wQese5flyLKoErfFuCsb/Hs5XOTXPQgYB5BX7MCuHuVDOw11z4MHraAdc9lN7l0vtTxB1/vMN2OcO3CWZwQVJI2RgrPFEDbM076izYNz4eCZNtV7UY3S1yxa/sshK2g6vPegZ4kmQdd81Bk49+fKPFebIpFUQpEJCOzsajNqSsRA4NQJBxYtN0rVTH3uSwtor/5PO1dbUnMiHwsEsfDlM3KMLnFTzmUD2kBXm1FTfK4CCrY6kNnXCFWz+Od/HbSCptONl3uYpwmgnzJOD9a93+W62hKJxC7WvQmgaeVgrUo3YkQksCWpen+k0ammZc8zL8wzgfbqr0Z4ZFC3yZuPa8D0Y6KrDZFI7GI4mgE+Qz0vqbjFUCDudPXdgxqdahoX/HjGCpqYcX3DPGbyvCz62EldgawrXpUr0iXuSH6GBfzGe560BE4GjMlSNcth3X3jG9kC/K/eeLvHxV1K0A59OBw4OTvJKGObEvfj6BHAp42rzag5mmAARc6hl6N44woDED717jAPSW23g27IrCgFceyyXxyrPC2RNCDmY6eBvg6VXHMzFAC1el/EI0N7tSbr7/8WgjJ4+kOeF3S5gLbX67rvCxFnF49v7WpbJJJyGOKzgUnu1xOhegSUSGfVNCpf0/rN02eBFm8/48miCQRceWcEWLYsl5XdJe5GdjzAMFebURtsvmb1+zUq1Vz3v0xQIu/r5pHTQGXwu+T5YVpInn/IoSKqEkmDIc7uBSI9poh7WaSvWZHi95JUCL72lghXW1J3Qv8vFNT162RkU+JeWM7EAYM9L1sT6WvawfjdVgGRD/0r2tNdTUA3cgaQ98kH5+Q8usSdMKcVA5M9bRE6gBIAsL/6+h2NSDVz/8gB7dSH2nju7HkZdP8XDuL4Z2elakrcCaECNPFEz0QT3RzYmlX9jvVvi3uQ+/nYjSq0v6KZqy1xEq3uigCR+Emhqw2RSMoizv/P09C0GgIcO1Wt8Y1FNc1bfzpmgYBLxrvaEmcR/uqngSDmHna1IRJJGcy5AL6uNqNWhA8GRJZUTRsic8VuC/jPuM4T4y320fYcrwHD+9UvAJNIGoz0TYC/Z47oNHqA6tP5Godqipx5cwyg6fvOGO9RTU3nm5oDS8662hCJ5Dxq0gGge2tPjGsiHEw9aiSqGfddEtDhsXBXW+JMtAPGaqDwH1fbIZGcx5qSBYzy5BtNqqYNw6J9KgQ+McNTK3bYp9XwCFDnyZaVEvfBCNDWM4d0tsIdcoRuI/k7E2jHj/fMz7JStIO6gTi6yNV2SCSl2Aa5HiorqhGg+sxED315NaPw5XigywOtXG2Is+nURQfZs6WzKXEXbO6aRyYeIdKOgCPGNwbVLPx6rgD/R0Z5masJQdNiwLLrL1fbIZGU4NG+ZsFJQBtVbWDTQ19eTVCTPy8CzSXDPTOHrCqU8YP1cO7vdFcbIpHYUBxdy+2GqPFbgeExUjWxnHjxFChNZ3RwtSX1QMC10aDuWOKZ31KJ9+HJvqaaBRAbUO2OnvnyaoB65sNFJgiYNNIrCzCPHaqDpOXnXG2HRAJ4tq9pyzmKDat2P69XTcu+Dfmg7XNnZ68o2lEe/7vCwLp+oyxPLHELbFMpHpnjXoJO5mti3HlGRWk6o59XiiaMGAskrUh2tR0SCZTqpZf/iHu7aloPbioA/aiZntjGxBF8/s8X1I3HPXRMJPEybHFNL3VRSvF21bTsPAiEPNzRa19onwnA6RNmV9shkeDZ+Zo2sx2Y//BaMSnh6Pwc4PKe3vvjp78OMCfLVhgSd8CT59BtZssOGIYN6wWEjfXK+XMbSls9sDLF1XZIJHj4HLoAqZoQ/7cZNNfP9He1IfWHEt0d2LFLDtElboBH+5qO4t0vz3p6N9DucS8WTYiaoQXTz7mutkMicbxskFviqIvs3app2JINXOWZhaUdJXBKDLBVJrpL3ABHC/u6I5Y4AL/Gnq+ZtQQIvcRbs45sKDHjgKx4V9shkZT6mp6pmnmrgNBW1U+CeLVqioQDQI8Y751AByC4I8AmV5shkZT6mp5J2j6gmwNy4dWqqc4rBsY1d7Ud9YxPqwhghcw9krgeT87XTCgEBjRr5CP0oqVAkz5BrrajntF17Arsk4FNietx5zl0kb03qYoJn8LVAGEOVOF1z5fnJFIPAn06efkAHdr1BaxxrjZDInHrfM2D0X1jf6l8s7oD0DdxoAyvV6vmUYBu3j5Ah4BIHYiF7vlVlTQq3NjXLFhjpGhfaqXRg2MbgW5d9dWfyS1fnpOwLgB8m1VfZNTT8Y1tAWzMc7UdEokb52seeETAR2stlWy2/iBA51And29WzfyNQHRn7847AtB27wQkykWVEpfjxvmaWQAhwZVJXu5GAc3Gd3BAEr1ZNbNSgY6x3vwSS2jZAjDud7UZEonN17S44yR6HMCwSlVxawLQfbADA3SvVs0CFYgId7UZDUBgS38oXiuXoktcjc3XPOGG0SLTIsB/XNtK/ODCuQXg172tI6fyZtXcbgL8vX+ADn69m4FpT7ar7ZA0erShAMeLXG1HRXJ2Ap26VzJFbtq02QRN+zo0C+LFqmlaY4Lg9sGutqMBUAa0AlEgVVPiapQ2/YGNSe43RE8rBnp0qsTVFAczBMSMdCgi68Wqmb3fDK36e18XdDv4+wDmHPf7qkoaGUpIR8DohksuBIBfJTnsImNZBoSOcSxN0YtVM98CtIh1tRkNgkYBcvfKRZUSF6M07wnghiF2W6H2SpKazZtOA8HdHNNDL1ZNW/EVL36BZQhp6QMFx9wyTU7SqNDoAc65n2xWORBT4zJA02mEA8sp8WrVbEzDVX3/UCg4KCsTS1yNxhdgd7Gr7bCPUkncMnFrNviNDnPsLF6smo0JXY9gwOymX1VJI0LfJhrYUuBqOypgWyBv35eybNsLNBnvmKvpzarplusT6gldK39oXC9Z4p4ozTsAZxNdbUcFbAvk7d4i6qll54BxAxzsyujFqmlb2tVIhETnwWUNJd6EJqYXwDpX21EB2x1i9xZRD6y0ADc7mm/jxapZxbvkfajuu/xX0qhQInuE445FslWozNdM+ycFGN7L0VN5sWqq0Hh8TY0CCFkrTuJy9L06A3uS6uXkQjVfoJIgZSXYMo/sHWLetVBAwKWOLEEHwMGBvCeigcbjawpBo0mzkrg3Me23gprjlHMJixlA2JwfUZRyLkPY/hCKJrJlc38Frd6xr33lEbvUP7OAS25weBmhF6umTS8bia/pye1aJN6F3gew1rluocVoFtmnE7JVRSAUFKEIEbf+RJlEUJ/YMW01IrhNhyaK3r9a6az8DinYDoTe0cJh07xYNW00EiFpLD61xP3xj/QxYVwzqfadZ1RDsTnuQLJBjd+RUFkRYcB08CCgtBjYSePXo1UbvaIJ8K1cPCuN/It1R4FeMY6P1LxeNRsLjcSnlrg//t2bJmLelhtRu8ON+Ym7jmaZjx3Jd2x/cW4+0KZlOx9FE9m9fziBQZWrmr24ZvHngO/IFo7fQl6vmlJNJJIGRdO3TSJqemYtVLMoy7hl07nM0+k1XpAZH78F0DePCSQgdlSPJhULRAYAnEuvOA6ffxDoOiFKqialetlYRq4y80jiLjQJBtQaph6J4oyThzaetqalV3Vg6OCxgYoAhEbNW72zfPFjc0ICKEF/hPcdfUnzcndDZOvjcCyuR/mBeOHHFtBO6F2DqVQvVs1GlXmkyMwjibtQmz6Vpo//TDIaisr7mBGXTA0SCghFKEIRAS1bhJ4/r/W25ORCrCsWp5W7fH4+B/8Z+mq3i58OGXscko4bytcd/v0Q0OWSsBoY68Wqacs8aiRCUmgBNF7f+V3iCWhq1hPdasyKW/vbSeuFYaGi99VoO18xUBsQHX5REqVy0XAqsAUCrs5Nzjq1b3myUIRqNJecpLh4/srbbmkdqr+wv3L552BNKbpYNUXGt3ngM2FUTdwrL1ZN25i1caQwqsvSQBMU5Go7JJLSqJiDd57I37xoxbEyT/iFB4cPndwsrEX16xsVFNA0acJospJNGmvykh05QmTnWgA1/3+f9bhxcpvA83LYytcI2881uegURf89IKDLtEDHrLXhxarZmFZUJq3MgeA+Ya62QyIpQThU7FU1HF319anzu4ZFRITEjusVFVLjUVNEBMDk3CyTZd3GU2ezrIB5z/4fbrykR+nEUNNeO+DI6W5lNE9kbV+ZD/4jh9foYl6smo0oy11dc0RFiZ7s8JIwiaT+0GkAU2rPandUT+06uXBnSUamb/v2AT27dmoeUYdvsTYiAnrefmL9is3ZArDuf6bfTWO62M4YPG0HZG8bE3phf/OqF48LlPZX+9foMl6smjYaha9p2JsK+mEDXG2HRAIENdWbydl8STUOo5q4dtGG1NLwZ79eM3sFhTlY4LJKlMA+vSauWLklHcC648glN08JBNCPCcmDVXdcUE311N9xKgRN6lezK3i9ajYKClKMEDTTGV85iaSuBPRdnE7BnrzwqnYyZB/8fVWizc/06z6o7fBWrZwnRpouHSbuO7RorxUoWHp883X9NaBp02c9HI6/sAjItHGZGXSvTnGon+8FvF01G0fm0emzgL6zq82QSAA0w6PSsWZkVaGa5nlzE7ISi2wpSrF3jmsRXEPhqg59506TL9v4/T4rmI8lbrz02g5aIsesh4JEtVQ1z7y9Mhvoe0NkDU/uxarZeGaDrEdOAR0crz4gkdQn4T6AWvkKcuO6z7dklqRmamJvndm6RjPYDqIJ6dNlwk/fJwso3HVy67NDdPoIKBOzO37LvmIg9I0qfWJ7eLFqCmgk+Zp5+1OBSQ4XupJI6pUQXyBlv/3Bj7Dk/PBZgk0zlcAhL3ULri8RUvw7PzPgw51FAjV72aZZL4drAUom7EXeYzusoITc0r3G2YlerJpA40j8tuxZL0CZ7Go7JBIboT33GknZOb3iYnAwJS/+ZacBAE1wh2tvjapPQ5Sgyy/9/qNTRQI17+ulj+qh1NcU6U+vtIIm+t3Lq50OUC02pdWVzu57sWo2mhG6YdchIKqlq+2QSGz4TJxnpOhQUoeKmywL5/wOgOLfusPQ69rX+7yD/q6J7yxOsADn3rsOSnMRjStWmMCn27WDK5FA1WwSCAVE+ukkW8fN8PHNbNu8WDUbS76miF9gAM200Op3lUgahFHNMuHw9nYVRnrGtY+m2h5pQq56IrhBRoJtXhryz/o0gZqyBMC2WEjdkQ2anq+PtzM8txSZRNbR09lCoID14LZSk996wvbAi1XThvf7murpvUArmXckcRsihh5VSVo5uF05TSr446OEkofW9OWjxzWIMUqTG0Yu+nNbEeII0LKVApC7rxCCp4y4yEBhLDBjObkz0SBSDiRWmM0SP3W+VIFGoJreT+HKfOD60VI1Je6C/rofVEyrprYuK0rWs/tX/5MA4KNawBp/pKG+s0rbO3t9uNQ2zO4RqQCWTYlA8/Fl1rqbC1K37Eq1YE08WUk9ZGH1F41CNRtBvua5uUDEhBBX2yGRnKfv4E2QuGxYmWw40+bP9yQUA4qwCkDXPrbh7PEZ/Pqsh9IEEKoDLPt/SQBdbK+SEIFakLl31dG8c+mmqk6iuXWM7VfAi1WzXmeDjHk5JqFBRSOEoghR+g+qNji8+s5PTsT6SxIwuAZdTySS+sZn7HYz1iVXNz0fuUx5569kU8ndaAU0Xe4e1IB1E/Sdmt35YQHwz4HbH/axrl9nhMBxoWDKyRTpCzZlFOQaKtOK6OmDdYBoOrRELr1YNeunKrEQqjH71Ia1J7Iq2yOg3cARzfRKSFSwj6YBpKzwdxX8rpEz6BI3IvC2NRsh6ftObdW8rOBIbe5P7yeUVhwWANqrPg1u2GIzwRNeAzAceWHDeznzsoFmHbep++btM6CaLGUVU6PTokRcMiNEg0ARoW3CbDJ5/nb2YtV0cj90oVqEUAszz+7dtCO9qtz5/NRtHwM+LXuP6NUmIkivrdcggbr/ODC8v4xqStwIpc0zVxUjFtzYbMl9abEfDf/6g6SL7sSWA36ovnymk00qvQ+LV77cbpMAjl9afhe/EF8FTYeZg7X+zcIqd3m8WDUr7xpfm5Plnz6bbrQW7N1ztsrQxwVMp0//7dN+wIC2zZqEBfvWl3Jaz7wE6Ee0rafzSyS1QtNu5ApB/nP3vp7OyZUtfiojmpqm0b53TG9o0QQTQHCBoOhvg53inz5RzYN6jO+gIah5dbZ5sWoCoDpnRWXRgdXzDxTV+DDT0aOzg6Lbxbbv3C26foYjhq+3AS171MdCXomk9jQZuzsD9t6ngroi9fgF0dS1vXVmZNNaCI8w2hO7i9EHVpMCeuvqYxYKyj+ri4ppEj14aES4Y2Z5sWr6aID8dDvrE2qGakzZu3Pdnos006d1TJS+rP8olNJ/LLnxSTkXPl2Rf+zYMn2bQX3G9qqPQfShhYWgG9JPzgVJ3Aol6srDv5lsEbKAiT8Ulz6v6zx8xKhWtchut57ccTLLilAo7b5WskEolP4tFN+e7dpGBtpXNR3A8e5pGRfFCgI6dtdrw7v2jQ7zc3hA6MWqGdb8qEri/oF1Wn+gZp8+cODkkTNlMl61TTt3ax/bJkJn/022FiQmJBQIS+6J4xml4mmOi/tnyaTJnR3/XBzE9OspgdJ6vJwLkrgZSpvLdh9WAQInf59e8qS2/xUDejap+U+8NWff6p0H0xzokt6ieXRE+1GdQwMqXkQB2GQumciPmRSkCPBt0bWTXhNgZ/cq8GLVDBq22UDGwcI6JDIW7Fm6Oy0t80JKgtKkY9/uMa2ahfhU8S7HWg1mVENGwumDe46UDgYK1++f133AwI41rkpVFebFy4oh6FLZ+kLidugHz/o6UYWQiPklPoe2900ju9Wg14TVqtMAlvTDy/clnil06Jjk5D1K0J+R4SNvaFbeRQkGLgzO07JfUwTo/PQ1d2UUL15xuHF6DtzwbvNaHl58bOGyxMzC0sCo34Ap0Ypfm6iwIL2D3qvVVJCdeHz/vrgSn1PxCQ6JnHBl15r1KKkCy67/rDChDP6lnffn8ks8DjVtxec7AqLjbbWH8el184Q2/g5/U0Xq0UUFw7oGFm/asrcwq7CGOqUJ7XjZlW0uvtPir9tc5i/F77Z3alsJ2ZtV88iILLj2nVY1P1KoxtNL5p4oNJVKplbf6ZFLwzQoNU0jUq1mQ9axeYszShLCFJ/AHg9PDKzxGEXYK0NS/L/X8iH05YelaErcEGFJuH9DyXyAZsJrbUIdd+tE+sqHLEah1ynCZC4Nj2mqvfuEqpYKmuIb0HratbE+Fw7JeOfLHEBrxaZ7Qff/q6ZF3EvP7cWqeXhkFlz3bnQND1NNeefW/L6nNMFI0fkHho27sWedKvTn/vnpyfzStzpgzF0Dm9ZkTC2MWcmGrhEVnt786E7QjP4rrC6mSST1hMh4Yo6h5LH/0lEOH2YuPHfqv7vKLwYPbD5xehNFI1BUBVBUUBCgUQEFRQjFembThnSRX3A+cSZg0v1DzjdEF6k/f59H8JTPC0uOjJndNaRW06jerJpHRmTBNe/WyNcUxeln9y9df/4T84lq0XHgkNjIOntz535ampaZY7T9oRt177BmDoeU1ZSVn+6y3Pu/8kKb9cGbZmjxwQx7xV8lEldT+ObHOUBQ6+w07cA/HPVeRMG2P5advfg5bUTToNFThziQ45mTWrRydXpmSolaa9vfN6nThRunOFlEqbdvT7GG+6QJlKjbHmhVmzvbm1Xz8Miaqqbx3LFD2zallP5UaZp17jhiaCvHYzFVoWaf2LXv1IlE28lDZ04eEuPYgSLtx8/PWmnyweUXubumo4s+Sgbts89K0ZS4IWr8+v/tFug6zZi+8b89vnS0/nDR8ZXrVhrLypK+eeu2g0a0bubohUVx+s652+NLJty1I28a2vkij9IwZ0V+5+T5eaDp9My1tcm292bVtMU133U0K8eSvm/3/h3x54MoTXp07TO8ndOmbgDVkLhjy9ZDBgAl/LL7ejs0TLese3K/Fei8uH3Zp8/du7oQ6LOophEIiaT+EXmbf1uUCUrMmzN9kv8cMNixobA1/+cli8//pbTuHYI2qk+3jkE1G0lb43dtS0neky0A/CZcMfKi+sjCUBSwd9E3KaCf/nK3WozRvTjzyIbDC9FP/b3jwMmSETRKcN/BPXrGhDh3mkUTEBs7ffeyeSdUEFm/n5hyXTsHjspddsgKYC27oqFw+eIVRlCaPdLEqSZKJE5BHHt5txnwnzHZhxYPOXaQun/FkcXny+Io0VMn9A5SNEE1X/imjYmZmpuy9s+dJsCwaOekO8vWV1L8/Rna/tRfRsxrf3qgVc1l05tV04GF6CZtyW+QZe8Hy7JKR+b6HtP6dGodUi/l+UNG95y05q+jFijccPDEE12q/chE3O+2iSmlzK6mTf/dZgZCb79Ulu2QuB85Xy3cbQaC353g8DSqNe6vxYdyzs/khM66vHfz2q95CwhoETtq+Q/HBagpfxy97sroi5Ug/PHU1ZD958hoqZplqdZRzP9l3fgx7QGyX1mYVLLoS9vh0jGxzYPqraOJEjmq72Vf/FQEZP++Zdoz1SU/FP2ZWPFJ8x97zKC0fOimCjPrEonryflfkgACbrzc4R6U1h1vbjrvuKAMeaVXLRYRXURgv9gpf32dIhCF21M6lZt+9en7xuRsxNkFg5rW/MzCezkUAVwTX8lWNXfOqGB9209UoVrjr7DFhBVd9D1LEwos9W2Zmn9kkk3T/fr/nKtWuW9815JPquO+84cbP2gOaKcdKK76WInEFWS93lEBtD3n5VgdPSb15ZgLg2gl/Od0p9yFatFh23yP0vTf2eWtvF8PtNtZ83vI61XzuiS720ypc0b6AErbr+PmT7X9Cvm2uGJNXkMZl39PM9vYWhP7dX5Vn9uW0m9SzMaS3YpWT/cHNLFf5jeIqRJJTVDPvRCtAP7/ynT0EEvugbE+CqD4APiP+Oic0/yBgo9ifQAi9pY/5anxAJ8V1/iU3qyahyOAaxLsbbJsn2kLt/jc8EXvEs895LqDDv8wOgHLjitDbf5m86c2JRsr3W95qWo2+bi45MBpgQoorT81NJStEonDqCmvtdEAEVcvdUyP1Pwzyx60ZbpoW18TC8F3xTnVoMO3tFaAwdvSL77BTb/5AN231Nir9ea4poBK5tBF0s8rigACA7asTgYgoNukuxq0tK92wJs/rTuYJSDlrR+nDh3SvZL9mjZNsz0oOmJLispfuaYIiLj7TlmzQ+J+WLb9kaSC/7R3HQsYqucWrNqYCqAED752/JFp6ohHWjvTIKXrJ5//Jxe2z7r2+m5lBU/XIfYgHPvgy5oW+PFm1VQAsjNbVowpx7/8HYB/r+KUU7ZdI6fd27+hRajjv69e+sdOFUj+5uexj4+wn28bPuxv24OiA9lBgHr0yyKg1W33StGUuB8i4Z/DVvAbek2wQ/sXbv37r1QrgLbtpbf30DZ9wlqpB1Fb/Cfs+KcYEf/ZkZtGRl2QAyVmynETlkWrLq3hreTNqhmgAOcSepRTTTV5yYo5gBIda8iy+XHtp/UeU+fqxTVH36PToNW/nAAwLjs35YqB9naKuPLsXoadSIPME63BuObrs0CbJ26RrXwl7od69ot/TKAZ8uQYR9asWU/8tuiALUs6cOQtI6I1+L3pfKM0PR5I3mxB5C06+cr0Mql6oWOXH1ApeDtqcA1l02nRA/cjZxIQ9G7RRU8aj308o4UCMOvbcbb0oo5vrE4zu8hGUfjPJSUfo/+Ulfaim2ruz+3b/TBVB5FvW4TIGaMB/F/NanBLJZLqif+/FgrQe51DQfe8d8eEljg1o57eVY83YfG6y4IAdP1eiLswKaSmvdkc8L+jhtOq3uxr6votg4JzxWUWRRZs/237uSwrwHD/r/dZAfq8NC7INQYCBEzufGDhgkygePWx8f+q6PEqITN7ibYpG/LJOZgbwbwdKmiHT5CepsQNyXzv13QBIS8Pc0RZrN//L0EABA6/8pKI8Hps4+I3vNnsj7PBsich8O6w0meVJjce/cWEYd3a8t0qq8HJmu5OqCsBHkw7/0TuvPGRJcFDfZNm/hqA6LfiTS60UQihmnOO3G/Tbd9p+yuZxj/SCui7SuQPVUBz2ykX2yyR2KPwyyYK4H/TGYd2/zFGA6Dt/F1K5UkkTkIt2DZQAZROZTO4DXO6KaC/pajS4+zhzV26lFAomUkH1LwPul2xMtMIoA+IKEgrVsGn5/OPtHbxrIqiC+3yycttfAHjol435thdON+upwKn96e+sF9A+wmt5EyQxP0QmR9mCAgc+6ADhcbUrM+fP62CX8yds29oVu8Lg5XAQes+CwRxYlWZO8x3xp1NwLz0s4KalDHyZtUsgznnxNr/e9HWk1kJ6zQwxtYLKHDq8nsbvi+zPf5vx21hAPx+x7YMO92I/S7VQs6hL+YUgf+ll0nRlLgf1jPPnwSCxj3V14EFyan/uu8sEH7nkk8aKH1F32+CL/BBTpnnfO8eooX0X9dbKjnIHt4c10QPkFMEB/Ye2bQvFwC/1u2HD3nthAUI7Dzseqc2P6sLTd9otehQHqh/bXzqHjtFXoYqwIn9qQKl8+XOLF8nkTgHy9GP5xvB/5LHHZmSLli8EECZ9V6D1Z/R9bv/9D44Pn98iwuqHnjH9lTUA6sH1aB4mFerZlRYDmw90WzD25tLupf4dh85uve5DTtMoBk8bmp/NyoYFPb0jI//zAIyf/Wb0KHCGCBYAXZaLRAyvn/DWyeRVIN69ru/c0HT6zFHZoKKf3krFYie9EgD3oPafqOPmCh+6qm7y8z/jhnzpxXjgsljHR93e7VqRoxYCGdWrlp0oOSJvrOG9vHZ8OHaItC0uu36mtftq0+0PZ/qO3ejAevOuH1PdCxfsCmy6z4oAvTDr3ePoIJEUhbLln/SBUrT6YOrFxXzwb9+jAeaP3l7gyaDBA1aekKQtXDYgAs2Bjy47yjELelTA2fTuRNV7oX6hx7oU5ptGzhjo0EYlk0NUkBp9VxcvZc2qjGmHdN8AMLG/lw+3S3/7pJXMXSX+9ktkVj3TNcBQTcddOD7mX1nMID/0xn1b1hZrKmzY4GQZ8vOmZt+8AHabna8XohXzwYpQ4cBhw0AYRPf+v394b4YVq8vFCgDvnm4Xb2V0Kw1+n4ffhuiQM6aTzLLbfIfbfvX5z/93M9uSaNHJP261gLaKf/XudrvZ9G82+cWAH4jpoU2gGll0DSdMMgX8heuKDP5o580Bkj4KNnx0zjdMHci4lLABIQ8tPbHBye3Rz385NcFAiVq4sCm7vjSNR0mXSYAsfPpclu0Jfnvo4Y0tE0SSfWI7O35wPB3e1Y/PjcuX5wtwHfU4/0aPEIYOKEJiCNri8o8F3m3D6gLvymo9KjyON8LdhtMyR921AFog58pSR4v/j4EUJo938Ajgxpg3jFKB/iUX+V1KBwgeEsV4wjVkHpgT1rl2yWS+sLwvQI03evAnvP76QBtxzerqcddPxT8yw/QT99dJpAQf5UCNKmsgHkF3NHhchLq8hmPnLQAWPOXnBYAhhXv5IHS9f5Hq+s74Tp0A94d5QumxVsvztvMLgSYUGmDVLUwae9H0wb0HW+tdxMlkvKkLhHApdW33y0+vn6/BZSeS55ycjNDxwh8qrcC5tW7zBeea35NCwUyPreTKG0XL1bNIx/shZJXeOZHM2D68alDQJMvnnfrbjsDX+6ngZSbvzaWedL8ngmgdyW9q9Qzyz5/+Londxo5sLQm+boSiVMoPgSET692Hrron1s+sIBm1H21aNfjFAIeH6FA4ZyUC09pe88IBJbkOHgKr808sh55c7MZ8Gsdp6Ib9YgOMDxkAnyu7eSK37ga0G96XLoQacsn9zn/lGWFraa7v13TrUk75q0q+RaIfy7x2g9V4q6IxINA7/bVemEpb+23ghLzjt2yiA2B31XRV6XAzjNtzhuraX/t3q1wesskx24dr73BimcvLAKf7pP778+0NBkXAfCpBfDtd627txD3nenzfhLWXR8+fr7Ffc57tvC1xo5qWrP2zV2aUDowb/Yfmc4paWjEJoAeTarxR8y7fzlgBe30q9s3hFX2UTpe8SlkHxh2Ib9e26PzViiaO9qx6mdeqpqW/b//lQc+U5/oETKt0BoYCFCsUUA/4IGu7h6W0HaL3vungfy/e7a3DcjNB7/dYasuULHGQPHGfRviTxbaNuh6TBkU5eaetMQLKfgFCB1UnWoaPv/NApr2N0x35U975NgfC2DRNWViBIHdIzMxb9kz0qETeKlqmrd9lSMg5oW+4Fea5e5zz38K2t47tX2g+8tKyEs5CxG5n6Xd004BjEt/z7e7nyUv6afFaeklf0UNHzWyY6j7vzqJt2F4/wTQvWt168/XrjWA0u7eES5dyqxt0/YQbF107YV6DpqurbKESFo61CFB9E7VTP7i6xwBAdM7lX1WG7rX6NMiwBNURdPh9U3ZiLgfJrTRgnn3otKkd/WCsykK0vbM352XXWR7ymfUzd3aBNqPe0ok9Ylh2bcq6Cd2qebbV/xbEijj3u7kWsdFaTvmEOStmnXhKf2ISafzKNiZFu3ICbxSNcW5r84BwQuGl3t5LugNVFvaXf97BiLlldjWwKkEFTQq4KMBUFVz3pkvV6aq1pJcCcWn1R33hipSMiWuQGxKA6VfdT0RjF+uMkPUlG6ujryHDYjIQsx99UIhCiXstiUHEPt+uifMgeO9UjWt684Bbae18+BXF/zB+FvyBVue+V6HLj0HfEIyQB+uBcO5pJTNC0+dTy5T/COjJ94TLSVT4iLylxogaFLVtbiE4fiKNNANu9vVoom2W7+VYD3XrsxzzaM0KhlLBg93oMqdB+tK5RT/AgS8dJ3LP526oO151dxczH89NBjrLTvmavscBdp11JlObP15Z9m1X8GdRk3pX589VySSqjlZCMQMq1pvLDte3CCg6c0u7NJVgrZdDCDSrWWWzPtO3pON9WTcUAeO90rVPHkQ6NPdswueKx3+lfWPSvEbv/vqml7V1KfDg0D/Fid2frflwhpa31Ydw2InDZH1PCQuRN2YDbou/asWE/Oh/VbQjRnbQFZVhW8AIDZPKLNmRDu481ZIOlDkgK/ljapp+sUI2jGdPN396jBzawpsWnIZzJrFBwBhS9ZsTyjZrGnWp23zHj0iw7zxM5R4EEV78iGkX9V9EXJX/ZEF3PBAJavbGhTftuHZqNsNZWzxGXDXdhXiUh1o7+CNd1zmX0CznsGutqOu6MaMmmsl58PmQwDzYkBZsTC1ZPls6KCxsZ2bBfnKaKbE1eSkWCCy6hGPyPplHdD6PpetCSqLtn10NuJkRtmV1QHTm5+DnYc7VT9y8z7VNG39OAHo08vzh61tpu86JSw7fu7jB9k7AU4JAE2Lyf3btW/l7+nOtMQ7OJwGBLWrch+RsEYF/cTWDWJRdehiWx0C68VJ0BETfoC0JUNbVH94fdnlMsy/LjZDYN82rjak7mguO/ZRLkXrNkyA9EJKVwYFjb5pdJiPlEyJe2DZkwy69lWvU877Jwu47V/VF0VqCJSm4UDxrotm/bX3/GZEXXu2ebXjN++7907tKgSfwWPdqJFarQl6pLcGcWx+PphL0ts1QSM++/mq5n7e98FJPJTCIzkQMKrKLlwifTmg7RHt+AhQtVrVmjQprxHBnYKhaKPxoie7TQfiTpjtH1IGr/M11RWnQDN8dnNXG+IUmlyzPwfz/H43+gSHZgCaiP5PjPG6z0zi0RQVCQioegV30ewDQN9+jvoy5rziY1n4RrVsVj/pgz6Do49hOpJ2UcDAf8qfIDKqL1DrdXdgzp4cCBzp1gU0a8Atf6yFpOXdehofeEUQ2fPKWa4qSyiRVIFStRNpWQv49mrq0OSlmpd2YMWJ1UDAsGuHdqmXYVW3qGNgvjiwqfgBZDdC1Txy3ApRV3vD+Bwg8KHtRYi5Sf/t/3hCgbbv1W3lnLnEzVAARNV10PftBNpObuOIAlrj/l63JRuAopWrL7nv0krcTWE2+9Q6J1ujUKGCmDYqsBDW31NtGr63qaZlx3HQdO3oajucxtiRqyxYdq7rHvxlnjZIRjMlbkqVP+eW302gH9zXEZHLXTJvTeZ5DVZXnRsVZXc/w+qduREDB4TXzo9QAIoSYssKoNKq+3bYl1Tt4mRvU82zm3NBd7lf9Xt6CIEvdfxMxfDXrDZaB9JvJRJ3JGe7BZqPbVf9r75xw58rzlzktyb89zE7USnTtt/XnjT6db/3itoF4/x0QP7xiyYJlKbDtkNO0oBGpprWnRsFBE9wtR3OQz/Iuuwk7I1vLcfmErdEAChVCuKGRAGxDhSvzPt59m4DAJqRnWISF8cLCuYMnVLBRy36+fvdRjDsXXBJ7ZzNoD7bC8neZbho9O/XEqC42oO9TDWLTmYAM1q62g4nouly5VtQnCikakrcEkUBRFVzKOa1eeDXtfoM98LPPkuyAASPvWGIv5/xxkd3QN6JSeXPt+vLZalWAOuqEzG1ujE0sYGFmFJyQ+1sqvZgL1PNtB1m8H+o1suCxPn4sPvUqgxqpwhYcqWMaUrcEiGoxtfMO1AMUYOrW4Fu3PrB6nwBiv8lz/X010Jgj/HH8shcc+1FbpAoXPD2UaMABYEps3Y5nb7DQtLAenE/V9tNX31/X+9STTXpANC7XS0Pt+acS8lDAQVt6zaBbrLGWx/T5iz89ap7rEWTSMph8zWr0pr8YgFRVZffBMuWtzcUgOLT5fErAwAMJ5bMKwCx7JNXy2iyevyNvwoA/Nr4HOE/k2rnTSgBWsp6SXD+z8bma5rjEkAZ5V/9nhVRC8/F/bGotAUPLaZcM8Y90pc0nYbECwpW3O5qQyQSe6gq1eRrKgrVj95E9sq1xUDwyFun2rzSHQ/tA8By8EC385FN8/6lfxUAmqjJtxV/ppla24azNoG8WCEbp6+Zv8kMPoNqkcSlpu/avW5bmaTXlF/yDUPco91j6zFLc+Hvm73rs5J4C0YTQFWq6dDKyLwFs4uBtldf09t2A6f+caRk04JWL5asX7cmbHzziAr4drvxnkAm19bm0izTcr6mClW/EhtedSeK1DVAy5oX1jTEbdu2+vRF8Wxh+HPXRxPd4u3R9+qyDQ5neMciUYm3kXAOiKgqLy4xH9BWnQ4oznwdD7R97sbSoWJ+/Pk70lT6qPDLb1MBpenMK0fWakhZDsXOn9VLvFvIgrNQD8QDo1rU0EO0bvzr8IH0Cn65OPORZYIzPpk606rtNshMlaopcUOsJxJA6V7FSNm6IxV00VXnG5uW7FYh4LHzoknMvYdPlDz0temUcceC39IB3/Gzxtf0Li9P5SuaLHaeuxivUk3TAgvoR4TU6CDzwd+XHTaV/BE2tacGEOqh3y2oy5uOdgvVDA4GzDt7u9oOiaQihjNZoFxSRVis+GAOBAysukx4+tdG0I6ecsEj1Q7531dLbd1etLbhY/GCzwoE6PveObnO61hUqDDzr/UH2HNtdYNVr1LNzNVAh241m8QxzPk6y+aT63rcMKJdkAJg3XZst4o6/3k76VwNT0CboAJMa29yj9kpiaQsxhwzKN2r2CM/2wLBo6rWol9PAx3va1PGhdSe3l9Syk0VgHn7J6sLBITMerh93Ssh2ay5eDSuj26SAauLq2sD4VWqeSwDGF6jAhfGVe/sKBKgaHxHPTIg2Kf02DE/v/YT5J51iwXtvn1aHsO8N92bkvcl3oJtRqWqXEyLBdBWLUWGOSr43DeujA9pXfdh2bkGYdjzdzHQ6s8eAU6YpRVQYTZI26HHWjiQ0K2aY71JNcVyCwT0iazBIcbEDRstoAR1nnlV+7KunD66rdYKC8a6xSx677bHwJgrVVPiftjSdaoIBoq9JwH/qu/L9P3AgKFlxNe66ZljgI8J0Cpw8KHNZlDa3NixyvrHdaJVv7VgzahuN09RTatR0Vdnq2Ej0LpDDcax6p6Hd1tB0+ey+8t/pgFdmifBhjy3GKJr5bogibuiVpeuYz6cBNq+9isXlZILENvqwhPG/YsOA0GDVgMCa/z6LWZQmv40wjmOjL18TTQ6cCBh00NUs2DrHk3Tnr2qFo/UE0CHGgzQjZsX7rWCps1ngyps03bvnASnE91CNW0vqfrsW4mkwSnIApQqAo3FCfmgG191KFIA6M5rryVh7dvHBPhcd81qQKHw5V9NoBkws52TRn8aKFX88mZUewUPUc1jr2wgYMjVt1Y5c7a/AHQxjrdzKvrjncMCtJMub29nq8kEiDzM+UqIq9td2qIvrrZCIqmIOHUACK/CkzSbAE2Pqk9TTqkKP/4+C9D2vtcKINi0ygRK9AOz7EqAKd8iFP/AmtwhNn2snQR7hmrGf7YXilafvaIq1bRuMENwe4fboKtL3z4iQNPujkvtDeoDmvkZmOG/dNMZpd9tbuFxSl9T4n6YT50GhtR2YeNFlM7NGLYu/i0b8J1+WwdbyubO91NAGXrXqIoJTiI7Me7gcTNKQMfJvWsayrKrmtWmuXuGaga21QMkv/J8FZ5k4U4Vmsc6vJwy4duTAnxn3NHP7pvQ5ZYjh33umLP0eCHLR/V1i0khicTtMKUVAVOrEBLVCtWOlMoOjQ0rPthaBPgMvKOk1az5ly0WlKgZsypM1Rt3rt2Qm5GeCyihi6Ze3d5Rf7OKvh1eMkKPmLlxOVC0MasK1TyXqKK06uiwvq3aYwJ9/xvH2A+46MZ+nRa6+9t0FdJumB9bU5Odiu011VubU4mk1ggLQFXpHUmnAaWatScXloWrRz9bnGgCwq+7t73eNjm/LbMQgm+6vcKik8JvfjidXWpJzpbTmfd0dNDdVKHibJCDSyo9QzWVbl9tfO0wqFW1Kt6dC9qWDi87LNycBj5Xvh9emXMaOFjk3J0mAHE0ybWqafsY5US6xF2p4rtpPXEU6Bhd9QkEgMUqSHnzz0wjoHT4qUegAokAB1WB0vX/ygdPTTvfX5Vbxl1Uk38a1t7B20QDFfI1HS0V5xmqia7NsAio8lfAvK0Qwno6HNZcv9UC0U9U4bwqWY/FlawaCnP0rPWDI10AJRKXoABU4c4Y45KBKdU0ftQBrGgxYOVPhQBoO9wYGwSIvwDFIiDkuvLCa1jweslaaL2fr1bNMyLSfxrkYB1ae1nuJYO6alv7eohqllAU1za0shF4UYIJIrs7GtYw7Y8HTWyXKnYxLFxeIlTd21bcKkTDlXt3oDOLROIaqnPPzIUAo6o5S2RkMpx7s+QvJbLPnTP8AXIPlVxCM+iWcocY41YftAB+TcO6DuzVLPeLP42wM7mVY7dlphnQlhtoFucCVLtc02NUU68Fzr5w4sqYSnQxP9kCQQ4vnymKzwf91VUuBNuSV/JoQkUPNn9/Umh/p0wcSiSejGOhwOq8mYCZX59fXqQ06TX15pJ7KzOx5LkJD5cLaorE1+dYQGkxY2KP6EAgckM8FBgca7Clrs8GbcTFN7ZI2A0EVZ2PjwepZvjUg5lYjry7/4pxYXZ3MKuA1uGFQfk5gLaqovzWAxsMJQ8Hlv/MjbuWLjgW+d14R6/mFOQIXeKGCHAgl7g6KdOP33DcNsxXwoZOnHbeNyou0eOI18rfqyJjiwU07R641+b6iIICoGOkY65m4c58CO19sWpazxwH+rWo7mCPUU3/m//KEqgZv22/9MEOle7l+Cj23BkgsqqUeNPicyWPwst31TWtf3eNmaT/tXV8xt4JyCx3iRviWNeI6mKFvmOL5m5NBSJHTRrV6YIsZZeo5ox25Y8wrzwNTL1xcsl4sXhFFjC4mWO35MHjFmg68mL9M6fkAZOqLQ/pMaqpRD7/+nYLqCe/yP/M3rS3Q1X2z2M9cxroZqc9/XkOrC1tiNGnfKik+MP1ZhBRtWi1USvkikqJ21LtfefYvHT4lQOOnywiqF2PmLKitMVWKy50RoWFJvkLgMCrLiuNQub/CtDJsdIehlVnQduxXH07YQaofk22x6gm+kktPp5TCBT/3vRlO3JltFJNz6eymM6mAxOqePmmZftU0FqBUWHlti3cbAB8Rta1nrSjyExNiXtTxX1nG/9V/xUO6BprtKLzvUhfC9eaAPRjYyvIbvo+oEfP0phc8YfHgNguDnkylv1rcyFgaLkkUuFYtMGTcgB1ff67cJwWKPj49nMVN5/KA32bqqvsX8CUawGqmkHfs7wAtE0BWpWLlhZ+nQu0eXdmQ5UJrr53qkTiIqrLPHK0hRloA4KD/S9WpMQEFdDc+0FF1UwxAN2blzguxXO/t4C2h2OOjDhzVoWQmeVO6miPSg9STTRhYxb92EkD+fPfyS3/22XZmwG+jq9CV6BKT7to5TYgUg+0KbdKU/xwUIV2r9wT3lBRzep7p0okLqI6/8z2vc2t3cm3ZQggenB0xVtVAfju7ZKVQfmfp4LS7XbHUg/Nu06CZmK7ck9bCsCR8bcnqSbgO+vJNgrkz/44u5xsFicWQ2A/h5VFhareH3HgbzNorowH+rW++F1K/jsL/CbPariGFAUGQPGcaIqksVGF/6AP1QFLazVSMu3KA+gzwM533zbwX7DDVhTpr2MqhF8/1rGbpCgPUPqUV4uMDYBvk2qdIQ9TTXRX3d9BAxm/byhXPLooxQh+7Rw+UTVZZtlL9wIdxwJ0Dbtok3X+ARXaXtlwjdjE3rOghLpF4SWJ5GKqG6H7dmgNbKiVs5l2xABg96vfZqACpP5hACjckAe+w8c7OD9bkA1oBpUroaae2w90rb6Cp6epJuH/9+8mII6tKFem3mIFNDVUskrL9lv3fmcB3f0hUL4In3p4QRr4jhhRs0vVBeOhVNAPiGi4K0okDmKb7CmofAdN525AYlJtTr7nrAqEdLC3HLPlWy2AYf8OAEg7Y4Jm1/VxzNVUD24HwlqVfzopHRhZfQsdzxv1aS9b85OKadG0ZnYU3+EfAVs6/IHJ9rcW/rgkHug940SFTWr8d1tUaHpbnVuLOk5RcjH4OPo7KpE0IPqowELYflPle0Q2B0RxLc5t3n4OUNr1tRcM0/d77WCx/8RmClhP/XIGaDrUQTnLWB4PjCifd2jcCdCt+v6XnqeaBD68Zz/E/9PvohR1m0NY7br7UnxaBOfD7w/YW1Fp2vnLn2kCAm5vvhlAX1aLrbv+zgXNxIG1Mb2WmEyALqYBryiROIhPm+ZxsMVQuRdRoRybw6QeKQRa3mdfDUNvKjD5BGkBy6qvksGvn4OjMfXIfCvo7yivxRnzgPA21XsnHjdCB12vl3xAnXf8oviycKzjRyn6Lp2Bwx8Z7GzL+eSHVAH6kcN8VwLBrcp8IdRj38cLiHykIXuTJ8YDSv115pNIao3SrhtwzE4u4MXUZjbowBEBhA2zN6wEtKFRoVrAuvO3ZAGRQx0cjSV+lghcMqT883+cBvo6UNfYA1UT3YjJQNpbiRU3OfxylD4jdWD4NbvCluLvLp1XAErAw190L94JRLe78GGIo6+ssoLu+na1sLu2WI+dANpXuzpWInEBES2A4vTKd7A5NLUY1Zr2ngbwrSYJ27LjjW0qBMy52rGomXpioQo+D4SVe97wuwr6mXbqm5XHE1WTiPuDQSx7sFYB5hJCLu2pIA5MnGO86GnLrtse2VkMmvDLZkXrU48DPWPOe7Bq7sEFxaBMfNLhvFAnYDyZDExpyEtKJI7iF6IApyrfwTZf5HDw7ALn9hcDPt2rrkGk5u1cYQDNzN6BDg01U2+9tBCUmQPK+5Tpe4EBQx2YUfZI1dT2vFwLluVb4i98FLblM1X0si/PkAnBoB6bl1p26FB0+K+F+QL8h7z61SA9BQIIOz+BZzl4640G0LT9d4P6fYY8gHENeUmJxFH8YyJAXVb5CNzma9Z8hC4ObQEIGF21C5n56OMm0HR41aEQljVp6yIDKNE3VKhBcUIFejnganribBAQddn6eBXj9RMe7hdZovtCULPlM/rLsn7Px7w0+KoOYTqhCEUgEtd8ckIAfhM+v6CLmvO/YFnvrjCDEnVDDXquO4G8ZAAZ1pS4JfqO0ZmIQznVTMXU3D/L25kEEDCoyr3ULfNNoETf5chUkJq9/9PFRaB0uKlXeYPU+QL0UVVV3C3FM1VT2/uKnzIE5qUnnrjhIjWpgZrph3Y8s1ol55vFg9r5oAhA3bnRDCjNZtwSeeF0panwpqPrVheBpufVVzpYjco5FK5YBzRxvM+7RNKQdGhzAJJSKlUt281SY9UUJ/+2AERWVZiM/JX/zgNlyJVXObAIxHr6r18OWUAJv/GRCrvnbhDQoqsjKd8NqJqmgmJFoNjcOts/isA3qBaJj5o2d7T9fr8V9dSXGZd1LuNg1mgYEPbomTiBmjTv4qf9pky7rGyia2lvkcKfvs4FJeqaB6ppt+dcxLnfU0A7ptoC0xKJSwgJBkxHu1W9V43jmqa9hwA0I6tyIq3zXz0ONLntJgdkRI374o8UC2g63zmugktpXnIGiO3lyHC1HlRTFOTZ1lfZStGXFKS37luXYLJnQIthQ3XCYSdRHxKoAXTd2ij/PSuw7jqx/sZpZefYrKrO4XNNfvKF1ArP+g15cGTppLmtMqAtE/TsnL9zBUrEFZc64sM7D5G0U4WY+xowq14iqQFB0X4GitbPqExLHK2/Vo7cJWYA/1ur0CjrwvfjBErINROqT00H865fUwQoLW+5q8LUqnnv1/ng172dI6Y5UTXV/GwTivXcigPpKtjGvJx/IDJT7a8O8FlYMt4tPUARYPNGESicfyQUhKIJHTY5VCsUoQ547pttAvJWntz99HkfXrN5gX70MEfXVWqva/HxmotX0Coxd05vd/5N0UBpuWN15xdnBbT5oH+Lho1qWM/kAlcMbNBQqkTiMH69m8Zj2J1V2UhacayzUDnEubUAjOlb6S7Wk7/+cdwCvhPucWSmIfXVlakCNIP+06viJIG6+5gFmg92aPqgzgpgzMhBoGA988++dAGY8g01csZNiXbyLitHs+Wrkl8t1Vb2yHrqy33XDCxJOr81KVfZ/pWDvT0heEq/w0uWnrqQfNTxpqtbl8lfUKH0Q8/fHS/Af9Lwhh4pF/wG0N2R31KJxAUoA1vGI3Iyq4w/1ngO3fJtFgDXVCpRlh3vrctSwf+6/zgw0VC89I2DxYDP0DcrtAEDClemgq7vOIecEwdXu1/UN1gtykg32aKS1s1/Hy15O1RrzXpQ1BI1P7/cM6JwzQaNAoog4YyAlTf/7XB1IF3L6DEvJmdaFKGgCMLaBFVSx8+66zcVfFYMaujpM/H6OqBzJ8+ctpM0BpqGKILMbV0r2SzK/N9xEr8XAPrOle2g5u9aZAD8Zv7HuNNwPhQImhYtKniMwnzuzd1WUILGvNDXjmialu+1QsREx6YsqrwZhdWiKmDMOJduuTCJQ9LCXeWVyxF8woO4MAtU8g9FOYY6i60oHWVbAALfqUk+uKKvogLb+RG65ezmBGBwpwavoJH2rQECJ8R4ZGKtpFEQ3H1jIVk7rqkyMlbDCJP1DZvGXFJpr+60f/1mBmja+e7NFy/x09/6Zfmdjb/957QATbP/3GB3gqBgfTwo7ac5NntQuWqaDfnx8RlmBZG85mCRQyez4d8kysfOW6RvP76XFptuAiVxTPXImmM1qIYiCpJyq3b1tU2HObZEwBFUsM0GpT2wRgXfexu+WNvqbFAG39G8wS8skTiIz8g5hRjisqtUzRrOBh352/Zv90p17Nh8M6CI+JfLbzEfO9jlYmFTE/+JF+ATe/Vou36PunGVCQKmVF8kDqhENVVjUW5cXErS1pP2iltURnCrVn4Kij6mZ/dgjbBN3tj+EwpCCYi0W/Cix2W5uUKBEh+0ZN7H5o2WzAqV+U9N2XwkT7Xprk1+LfvOXfBVlYiunQbNbO401Tx/5rUbTaDt27PBm1CYZgsIurSarA6JxJX0CgayEqLtby1JoqnRGc2f5AAQNDaskj2s3+ZBJQP/uLXtLxY2w1/rLRB29RWX2J8fyFwVB3S6xME4WMXd1NyEPUczsw/FFzp0guCeXWyDR792XToEKOAbVrNyQPomTWqwd6dhhQUXxU/Nn3ydB8ED2mn37EJ0+qBTkBPHssUAGg2b3ykEzYR72jT4RPbpA0Cnfg1ZYUkiqSGRzY6pnNrc377oCMda+17EjpW2qFuvil3WSrCsrfRgzZBrLxJHcW7h3CzQDv1PJUtFxNG1VtA/McTBAFz515m5KW5zelxqFQXtAb/YwZEam0Po36p7G0URilD0QQ0S89OGlAvYXrfsECj9HrZcC6jBTs1APynAL8rP8P4hUFreMKXhJ7IXZIG2h3Q1Je5M0MhtxWStnRZrd6tSc1/DONtWmUc3I7qyg5U7Xyz1nvQxg1sqF1IdtU0GXOyIWfe9fVpA1KOVDcDNJ04Ag65wVMEuUs287fuWx+VVrPkU0HtMk9Ixt1CET9N2rfxKXozOz9WTu7HD4gwUrBg0VAtYahJSqBbrJhVCW/ut2GKGpvdNrsLjE8XZRb7hgc6es8lfWQxhvWXvC4k7o73+m2LE3j0dq/j+1yjzaMcm243ca3Sl+ZO6u74/BYQNGR0YGVM2XRDFr5x3k/ZjvAD9FUMq06r0lcWA4+0Zzp9HTT6ycd3xoryyLy5o0LRmQiN8m7WO0JVJWtfotG6Ucq0f8rcB9fDDEV11FvITeznx1EXHBLRob/4xDTSjb6sikmD6eE6mVRM27pauzn1nfttnhfajZU9fiVvTafoXkHS4yF5/n5LQYw3KkWFZF29LO7qsR6X3k6bp4pM5SkDL6DCNrurlgKnPLLKA7pPL7FoHqCeXAc2HOHzvnlfNpz63Wqwlkqlo9ZrokeNbtmzqp4GyVX/cEP+rdn1lxpKaNtXHQuaBSU5UmKw4Ac1bHztihhYTKy+fUTz/9eMmAcr+TybcNNl5Cy6Ns99OA58uXZx2RomkPtDe+AVYM+2rpq+/IrCsH+746QoO5wDQd2xlQgdoOncSKNUO/0XiM38Vg27M6Eo79ub9kAVMrjTHqQKlqhn3bWmXOU1wYLPhl7Zt6TFFcEPePLtEBfFe0yLyjuSHOe/MxVbA12deAugGXVPZe67mxn182NaU2WxekNiqY5hzxunCGLfklIqm6w2ySJzEzWmuN0NidpS9mySgc5N0rGsedvxrnJElAAKmDahyN0fuM/XYq/OKQTP6Y/tBV8CydS4QfpPjUyIlqineyLM9iAzrMK5X/wiPGhIGv1W8PwMIS8OadC7MyWfX5O7JheDRlf3qiZSvv7yQ/GTdNf3u+1o4xTdXdz2/QYWwuyc542wSST3SNPYQbFkfbc/X0vVul456MqWDoycTB+IAlF4O1eSoCjXn4IdLikFpfmvlzQoz7soDJnZy3NkpVc2P9uyGoOj2Y2OHeF4hx+4/P/8N0OqkKhJPOjmyCIdPWiFqfGWbLVv/TBHg0y4m93i2QGQsGx7llGwC04EdFtAOvs4ZJ5NI6pOg0Ycg46cBve1JT/uWO6D4mMOqaTiYBBA0tn8drbKe/uvnIxZQIqf1rXTWunBuOihdr616Gf1FlJxL4//iikJ9u24923qUl1lKaA+AQRtUUo6bnZfbqABYdp4CbbfKPnL1zPyjVgi5c1T3zO175+aixh0c5RTVTF9RAJqbr5fjc4nbo8z8sQB1++ou9tYHBTfVm8ldNN7BO1NN2F8EaDpfXtdbuXDhR8lW0ERNvrPSvE9OvmQEv6sqyX+3y3kFnj6mWBfsqcnUwgTQRW8m/3ReTZLmHSD3WC74XFpJVoJI+3WxGTTDH21NxwGnE1eqZMUVOWNCSD21Hmj2UOWFsiQSd0HpOGaJFeM3V7azs9G/34JkDBt3ODgfpJ45CeA/urJyIA6St27DsnMqKK1unNWtMkemcNnv+cCASVXMO1XgvGoq5bPHPQlrMYA+qAjrqRTnqaYASNSrEDy2sl3iZmcCfV5sBmjb3L1GBWPVawQcJO+7LOCaysMxEon70OLO48fh2C/P2tmmnTg7RYi4vwc45s6pp08ChF1et0Lcxa8tSCgANMOe7RdViaep7v962VkzRE3rXZNBtleU0ol/+guA4M5AXLyT69WdSwAGtalka8GvcQJCXxvgA+DTQaFWayEqIr78R4Wg8R6TyiBp1PiPvUsP6id59ja2nR4KRWu2OnYqNa8A0I7vUadooeG1z44WANqR701sVonMFf9513cnzaC06lmjoJoXqKYwnf0pGRjZYTQQf8Jen43aoQEwFAHX2/0AxdPdrv3ZCj5Xl37AeoULjYbqRPYHOeAzveHrhUgktSH4kiFA8kf2vvyaW2MUxMFljpVO0191s4K2w/g6zA5YMz/v826+AE3kj39XaHxeirr31T1FgH7cnxNqFJz0fNW0nrx3YgEoLcaFj/cB456KK0Jry/l1UpGj7G4+uvDI0lxQRjxcmiBrFdS8/qpd1iaD0vf/KvNxJRI3o+flgSC+OmPv6x91jx8Yf/nHodiVNmb6wJi73rii1rMD5uTfpj58zAj49n96REhlGmfe9vABKyhhIx6NrplCu3oVeZ1Rz/x3ngGUsGdvD7A2TYTNZ1s6K/fo/Oc/3m6sNPuxQwgg8r5uStkjtE74KTJ/CvjP6ln3M0kkDYLP6EFrBcmv/M9eUOm6z/ZBwoq23YMduTmvmljUpPbKlL/x6+UFALo2Y+4aUOl5TNv+vQcI7HnNAzX1aj3e1zQuXJwLSoc7h+lpMh44c9hY7UEOYiqRTZ399nu5tgoDyiXnS+pbEgSg1rRFih02HgA69ZHdgiQeQ48JoWBa9+dxOx5lyEO+oH5/9y7H7o2Q5rUXzcI5zy4tBPDt884XlRbsgLQ3tlhBP/2nR2ocCvB01VT3zUsSKOFXPtNPj36KDsxrc5118oySigOt+9h9m1JtNfrDxrYtfca0RQX86p7AtfudLNANkK6mxHPwmdpHC2eefOegnUodU4ZqQT3y9e816NxQC6x5G95+dV+RADpd9u/plWumae2nm8yg63pbu5oPTT17hK6mrJi93QpBU64IAjQ9Yk7A2nNNnTREP1TitY612wLPusvWXLPHhWKs5k0qRHRwtLNwpRh/3GhBaTVcVoiTeBCdJh9NFSJrfpdOFZMfI176brYF668bD1zVq94K8apxS/bv328ElOaXTu8cU+mFrKcW/brPCJqW19Rmpt6jVVOk/PzjMQvoJjzVRQ8ozSedgJQl3Z2TrW8+alNNn1F2038KD2UBupaTLiTjppwS0Lx9nd/U1SsLIOiyS+UEusSTuLHN/6UgMr613FBhbsFvWOHOIyoi/rPsN8Pq5+ri3F8L9mVaAXw73jarZeXjaMv2j9alWUFpfv21DjQFtnMpD8a6qb0O0A47abU9YfrVD4iNd87pc6+y/VZ1267a27x5CEDMH6nntxp+igTGH7C7ew3YPMEXlMEn63gaiaQhWXhJj8E3+AJKm9XWClvV/D13+wFK6LS/iurj8kVbriqNhvqO/TOz8ptQTXmvt58CaEdsTK9oqAN4tK957tXTApR277Uv+b3Q9xm9DE6+9rlTTp8fbwtrD7Jbhd+0eT8w5I9mF4YB4pgRlMi6dnszrNlohIiZ7et2GomkISnavk5V9jfJKkYkvNGuwpo2Jajbtac2GBG5K9qN9HN2iR3V8OsXJwrNAIq27f9dE1JFFCDxuZVpVkDT+e6+tctu8uDZIDVt/XIBvlMXDz7/GXS4IQrUOSedcoHSlZEt7L61ybuLQHN9qzKieW5JATQfWcflPMalPxSD9s5n3LkWtERyMaYfXlERxUndAkCs3ppesSelzyV/v9JVB6YvbthRs46V1SEyfx5z344cMyg+zQZ/uvf+yMpF05p5aI6tpMfNm26qZUqo56qmZftNN1lBO+7NThfkRT90tAK5z6Y480p28y/FiR1A1I1lnjL+kwCExdTtPbVue/4kKG2frtNZJJKGRVVsk6DHJmnBest99habBP5rfhcFLBs3FNjZWltEzr73ntltBtA2v/y3lXdVVYjDeuDBK4xA4OCX/xtW2yt6rmrmv7BKBaXtHZ3L+mRtx0QpqCs/r0mXkuqw2wDEkpgCTAov81Ty2izw6TmgblOEyXOOqNDikbA6nUUiaVi0zVsAaEfc3l4D5jX/HLK3tLnZw+MUKPrsgBNymm1YTq999+73z1kBbbMJz709qsrKioYtL/9TDEr49E/vDq9qxyrx2LimaeFRK+j63D7woolm/aRdfxSQs+xaJ/TaKRFLf7vuviktHxhZ5hnLsm0WiBhbp9pRRev//gLwvfnOupxFImloFGMOEHLd9D6Pf7VHJeuJG/9jp5FuyJ29jyXA6W/SJzqnbmz2+vk7DwCg6zCqz7hqCrKLna+sN4LS5Ybp3eqQoOKxqpn9SwIorW6/pVxoouO9B3YJcWJ++7pnH5WsDGrW3t4KHWEGKKOQ1n3z0kA3YFSd3tKsV7YD2h5X1K1KlkTSsIjE5TnAiNcjuC4jIV1QsCRyRu+KN6HS6Y63ilF/3N7fCappjT+wcuVZW9584IRbRoZVo4Ri/webjKBpNuP+2juaeLBqKgoQMHF6BXXpO+5oAdl/Dxtp56BaEdvWblzT1nr0/N/WfW9uViH8mdg6/IaZVs/eawWuvLeL54ZOJI2R+I/mq6C/OwICru/wylEhzn6sj7XjuoROW7vBinrs0Ssq7bTrKJZtn+0+Y9NMbYcHJnasRsxExoJfthSB0vr2q+o2Y+uxqqmP3VCAITeygrro71y9U6j7Vw+q8xrukjqZ0XYGGqUbz9f3yPr1+0PFwOWD65KZbvxjbjFoL3upLtIrkTQ46e/+ngWMGwroYoK3JOUhcj8//K+KxX413d9//xcL1n+O5N1ap54H4vTsuccNtjuw/fjLRlQrhOLkm6ctwIDP29WxjazHujR+I6IUYp+zo/odbveDorkb6nyJkjqZPlX8spQmUKQ99ebuYiDy8brInfhrZTFo2o1rLUVT4kmIrJ8zBITeZ1sDHPHqsmAQyX9d837FohD+sWM7aMB6/IW7tte664EwnH520pv7iwWga/fw3HcnVCua6Q9cGWcBbbef+0bUVfZqnYrvaopXTO/wlN0tOV0V0I7bV9crnOwLoHkky97GvFcB/hBCCGv+kct1AJpOr+fW4XrG72IU0I5NqcM5JJKGJ/2RYEAJuedk6YqctPujNYASsTHbzuqb5Ct8ALRdfkiz1OJyqjH58z6lfSIDWz29urj6Y6znbvAB0Pe2s26ppnjsCB2/8ZU12w197Ll0rBu3xtZxRsVoBQi3U4oASgbnGoQh8+TiuWdUwL/bLdfWYQJdPbP8rECJuSas9ueQSBoca9r+ZQWgBI+9uU1pkl7UR9fcdcqCyJp4/etRFY4ImpmxoxisR++/6qV2Nb6emrb2600lVRoDekyf1an6Q0TWkc//MoHSfPTjfes+vvZc1ayCWw//T8U4d2yHuq2uicsHaNHRbv6lLa55aErBiiXrEgA0YaOfHFiHt7Ngx7e/AgGP3F37c0gkDY568pPf0wVKq5nXlUlVVro8+cuOAihaMXJoTPnbIuja9j/9nS6gcG7XcT1rNgFhiYtfsDjRVlcnqO2IB7tVL4Ii/8jcn1IATfhdj4XV6Gr28UrV1N21IA42znuoTs6mdVcWQMt2drdqfABmR5+bfcYIoGkz8/rKO9VXjzj99G5A1//62p9DImlwxOlPfskSEDT9pbLTpkrTW/v9+edJQfxj9/wrrPxBPiP6dJxzwAgFzw59ZJgehCIUoZT+g0+w/ci+Ne/04T+OHbNdIbL78GF9mzvgOVp2vrjTABB25VRnNN32TtVU2tz6ejFFn89qW/2+lVNwshDA3/77rG/XMglOvmzIEAC+g+8Y3aoucziWP/ZZgNuulk0pJR5E9qJ5a7OAqMfHlYtk6fq1NX2bI0T2/MCZXSroTNB9/ef+mQbqthd7VRQh377tYwNCy2V0WlIO74k7fioBAE2ry3r17eKQBqb8uny7CdAOu2FMR6fMs3qlahI4c9VaOPPWp3U5SWGWBcDH/gBC06Znmhmr7SNkwPBr6riQ8r0vjaC945m2smaHxHMQJ14/AhB0yS3NK2wMubvH84mIIx+cfrh7BbUKGtNl5BfrVSxHjtg5b9PIZj4tRnbvaRNOQ5YR474T688l5ZWsxPTvev/McIcU0LLwu01ZAvCZ+UwvJ+WmeKdqKu0v3WpAnT3q2jqcxKoCBLSx7/xpOk47cdr2EfrHXDejRUSdPhDjx/9NB03sla2kaEo8h+LX558AYOazdrKa9bFh634zIDLnjetS8fbQRE89dza+kuJHaWlH0C8LHTyoXzgZe3ccULHmFOSc39xp4mVDHMuRT/tgzmkVULo8Oc55DV/rPAvvlqjbRmmBtu86kJNQGYmTAdr+XEl5UzX13U5agIAr1+TVsQ7xpkuCFaDDb4a6nUciaUhynwkFoPeySooAW7MW+AFKs9vO2tmqZvzQteqwpE9IVPPmUSEXLzHyH/32wVyzYxaa37BVuw188ZSx9q+zPIpTmne7IRue3C5QBvxUzXL+Kki4axkw7LvYynYwbJuzoNi3z6Oj69oHJe/lr/KBpv++xzmtOySS+sec9usH5wQoQf3/M7TSkdaZZxblA74LhwbYGUYJ03cfp1WQIGE1GezWRFJ0fj7a0VdO93dwRGbK+PqjDEDXbPr9danWUcEOb1VN69evJgkY8Xr32q6eSrhrGSgTf6qYbnaBtLSIqLpqpsj97p1k0Dab+HiPOp5KImkgRMHyt3ZbAUIfebyKLGVx9H9L4gWEPP64/XIdRal5gCIUoYiSf6wJh9acs+QV5l+8py48qs+ErtGtHTXRfGbj57usoESNvPcSp66281rVJO/J2YWgafPc9bVMNoi7ZxX43/levXXUK8H057PxAk3s81fX95UkEidh3b7y+1MAug4Tb+5T5exI0bcvZQmUbt/1q4Fy5abnHzi8PjW1EICgppH+Cs3G9OvteC6hNXHLFxstgNLiqbvq3DX2YrxzNgjA/zr/L4tR4+f26le7F1lkBIJ61LeUWfb/miCg4wvX1fOFJBJnYVj+0h4AfEY+Nqma28tn1MOzjyNOfvpBqOMXCA2lr+nE4b1xVkDXsVf7UC0RNTgect770bYGPuze+5x9D3uvaurH9A1+y4y6VFx9ZVhtTmC2Aj7NnGtVBfJ/nL8CCHhSiqbEU9i4YL4t07z7rCkDq9tZ1ysm//MCjKs/mNarRnF7n+7dp+dYFIE+tMbLVYrXrfgtD0Db88abne74eK9qQujtK3ZaYcXpoWG1PodSz5lABf/7XzqgHzKlfq8jkTgL48r3NpkA2t4wfrAj4a/A67dttpLw4blHOtcwvOhXMQnUEcwHfl983ARoulw9boCTh+d4t2oS/cXc/4B66pXfanN0WCCgrd+lOnO+3p0J8Pj1Tev1OhKJs9j34boEM0Ds05eHOuRUaDpffjJFiJyFw52zNKcasrbM23G6QAAR19zULaQe/B7vnQ0CEJkfvmkB34/uqsXBRYufOhX42s11KpVfNeYf34pTAf8nH2wis9slnoBlxwsbjACRd9/W2tGBsyjYd3kGKP0/HlTv3/PcHz7LzDMJQDvww9iQeikg7N2qiXXjv7ebIPzuF2oxka7esrL9hvor22ze8MI2qwBNwJjnBni1zy/xFtTU+xdZBODb6vG7a+I3pr/4fTEoTW59vD4nCszZh377J8PWn1bx6/X4pc4fnNvO7d2qCTufWmdF6f5Vf3dL61GTPvjUAOi6P32lu9kmkdgj7ehLawAIv/O5Gk1oQ/b//WYAJfTrQS3qyUOw5CVv/WpXSUtvJaz1rCfrbc2I16um9feXTgro8+ywaHcaBFtS98/9BiB62C2XutoYicQBLGfe+7EIILT7jMdqrEjxjywrBnwmPzWgHtTMkptwbOvSEyWr2v1btRt7fev6u9+9XjXJf/67PFCa3H1/C/eRzWPrtyxKF6BEP32bc/pCSyT1S9KauSsLAKKuf6BDzQNXll3vLc8FfIfdOKqdM91NS5HBmHzo4Ja9xSVPBPQfMmJQVH3OO3m/alr2LnknH2h9RW0+63rBtOWzpbYM3Mtnzqqn0ItE4kzUU1/8lAoQPHLGtFa1OYP1xMKfD6igNBk5fGDrkGDnhKUMOzfFFxvij2SXCJm21fDeY2tYHr7GeL9qQsHsxwuBwGGXPugWsnn4xxWHjIDid82TNU1gk0hcQfGXi2ytDYKuf7RTbT3F7A+/PWcFlLD2TQJiJw6rY18vMCdt3rDzWJnl6trulw3qEV3v0wSNQTXJvnkhAFFv3ej6eRfLnreWFQAQOPZfg11vj0RSLXmvfZcOwLjHetfK0QTAenbeF3GlxYwCWw+8orOWoMja+YWm3Ozi4ysPJKYZzz+lRI6d0KdTfeRnlqdRqKaauv6pswBNZ71aw6k/p5P39IJ0I0DA1Nt7R/q4T6hVIqmEou++jLOV0Zj6eXRdBkeiMPn9b0ylf/mE+SloOs8c1TSsRt6rWpCZt++fA0bVkG+8IF8+w28YEB3SMDdUo1BNUA88t9QKaNs9c5PeZUqlmotSHl1lBfC54eVmOreIF0gkVWJa/MZ+A4BuyH8G1blZmenU+/MKTOoF2dFotSFDr+jWIkKvgFA0ld+dQgWhmk5/vDRdqJbzBTgVX70S1P2y8a19qjjWuTQS1YQtb23KUoFW910RU8+x4kowxsdtWbrbAuAffeXrMqAp8QCMSX9/GA+gjxr1bE9nnNGatGLp8cKcrIuVp9m0sToQgS1a2l+lKcxZKWkGrKlL15rKPK0ERETfONQ3skmDhroajWpSPPvLPRaA3q+Or3MYuuZYc5Z/srM0BtP+gZlt5Wogifuj7n58PQABgx+d5DRvw5SVueGvYykmO5uajB6uE1wsnAIFa+qq47nl9tUENWvV99IBDd/VtfGoJmx4ZrMAGHDX9Y51anIalvwzR3b/EX/hCd3ldw+XKUcSd6dw1bLvigF6TL5qsHNPnblkc5pZiMQThbU63L9tB11Qh4H9mrlizNaYVJO1//x9GiDyloljGnKUfnL54SMH0i9+bvg7dWwFLJHUNzvmzz4rgNYzp13i9BtGGPJMqHE7ElIPnDFWv/sFlCYDWvhF9+qhDwhx0YCtUakm+X+/dgxA0/OKmd0aSrTMOz5dkVESu27WfmvJG+738LOuns6XSKrCsuzDjcWA0uaJG+qv8pe5MOvEiZTDW1McVKLgbmN692qydY1uyghtgZ8LYm00NtWkePfcH7IAJbTj6Nu7NMQctnrsi1VxJWu92t46olmfEv1UYh6/TY7RJW6LZf+3y8+YAb9Ztwyoop2aExAmQ+bZ07mAenBNfGWK1KzvwFCN4tuqbesQbdEDv2jadY4+HDnp0uYuyERpZKqJyJn/xnEAJaD30xPrfZhuyPj112NFtsc+g54YG6g5kJBpWr8gGzQR9zwnZVPirhR8+mY2gO+Ip0Y3QMNpYbYAFKWdzRLnG1ZyvnklSkBM0yAdaPRaKH7vnTzQ+hRrm096okvDZxI2NtUEy7y3jhQLQON7xUtt6u/7YC1M3Ltp/7GSAqn+A2eMaROqBVQhUt78MR+4/SNH+zpLJA2Lddu/dhsE6Fs+dmtgg064qJUp0oVsTHHqqbklDxWfqe/F1L9R5Wh8qglFiz/Yb1u7qn/o6ch6cfCFJX3bZxsMJX8pwVNfiSkNXBuOnyvkv9stEPz0I7LekcQNUTP3PLMbIOj+5+p3cF4r0t79pOj8Hz4fDa8kxbP+aIyqCemfLTyRAxBw2a29mjr7LVeLs5JPzl2ZV/KnNrLj1HsjSzeKLROKgNDws8x6q6VM2pS4IblPfw6g6znhJTcMIhX//myy7ZGCACXqplmdQhs0utk4VRM1bvb8I0aAZjfe0sWps+lq6q5DB/YeN5f8qYT1n3ZpzIUxTvrrHwCgaXvJxCtk7pHE/TAd2fpSqgC6fDrKDVewiYO37QJACW6SnQ2g7fbM5Q06md5IVROKNn+1JB8gaOTV06Kc5m6asrYtW36mpKS0JqRpu5jO47qWFcfNw0seaJrc/XiYsy4rkTiN1Od/ywcixl4+MdINA+/JL3xnu7/Crxx97vf9FkA34ppJbRvQ22y0qol6fMMvG6wArQdfenWdqxKAasiMP3HyxP5TJQvFfLqM69aqZXTIxQ7lyRd+LXmkdL7qqu5yiC5xK0TmmpWLkwSEX/uYu1TxLotpzbd/224w3wfub2f49dtdJkBpesWjnRpO4RuvaoL5+PPzbI9aT7xxSK1dfNWQV2QVlvR9e85kZeUUleRjatpcN61zqK7CJ2neNKvw0p6rthpACZnw755u+MWUNF6Ma37YlmQCpcvzw1u543cz8YYNJZIVvGgkanbCjk/3CVBCel9/Y4PNrTZm1YSkHf/dAIBfiyEPD6nNGYwZhzftOVssEKaCQlPpm6nrNHpsp3b2ezEbTlubBJ56c64Z8Bvw9hA3HANJGi1xt+0wAITe9lwTV9tih/wff9pTWvMjZMUgAEPigqdNgBLZ/e7LG2juqnGrJta02R+eUwF0w14a4ejkjEAAwpRzeuPKgwUmy8UpZpqwyXd0C/HRViWHavGGq4oE6Af8445fTkkjJf+6pVZA02pJO/fLJRbGTW9uLRSADgsELx1me3rvCxtzADSB3W8Z0jy8AQoTN3LVBOvm97dnGAGaPj/dgY4jqsWQn5VaoApj/OYdaerFGxW9b0DQgPuGOpA7f/rNJUkqMOa7lnImXeIWiIwbVgrQhcfee4UTAv1ORj365t+2NOuwazP/gJA1/Uo2nPnmz7Ol9T8iptzbLay+QwuNXjXBsOWH5bb8rwFPDW6qr+IdV81FmSlnDu04mmKtuFHjFxoR2Ta2X/fmDq3TFCl/zN5vAM3gt4e73a+6pBGiZhz5YKEFAgbfP9ENU9vN+5a8beu35Xvtwy//A6EbzhdJVnd+tfF0qW76Xn9Dt6b1mzElVRMo+umfjXkAYVNHtmzRNCyg3My21WywCrUwI+Xc2f2HkswXb1SCmjUL0CgEtunas11oDQIr6o6X1hrAb8KrPaVsSlxO4VdvpQA+41/t62pTKmKN3/T60RKtavda8jup0Hpzmb5vxo1zNxwuLYzTZOa0vvW6gESqJgBJX/52HAC/Zq3aterQqZ2PYlt3gGrNS0rMSDYLS278ufSicsfpW8e0jenSIVSL4l/jTk/qqle2mSFg3K3DmrrjdKWkEaHGLZq91wJ0eO0qN0xtz3v929ICtfqrHnxluYDrvr8oEGZYu2jjsZLiYpoWo8b16FF/U+pSNW3kzfngaOmwWxfRqpUPCgg0QlgLUtILCuwc4hPVoWtM55g69MUr2vLmOjPoY1+a0QBVZSSSShFxb/+ZDfiOufWSZq42pgLG7Qt/TRQlahX6s/neNAiYN7HcXnk7D507tindpmjRHaY9UG8dG6RqlpC3b/Wc4xZH9tRF9+weqkUT3jK6WahvnZxEde8jW6yg6zn1tvZylC5xGXk//b4/F9BNfK2XGw57cl79skCULDtn4jdzHwXG/dK0/G7CXJx+dO6fBQCKEjnprsH1VApSrk0pIWREr+m/f59W3W7hfYb0adcsRKeg6KqaOHIMTd//3BkHlr3xo2OkakpcRuJ/Twsg5LPhrd1PNM3bPl1dIECrWIDACb5WgClhFXZUfHxC2w+87f1FZhAi/Y+U54fUzxhOqmYpSmjfLvcc2bzzRIpJiIs8cMVW2i+gefuB/WOjAvVVZmLW8KIj/3xguwWRdcPVL0U57awSSU0oeOHXNAGK9opx7jc6Rxh3zy8CwtrsB/zGXulvBWhuX7o0zaJ67ftgZaEA476dTu4QV4ocoZfDkn9u9/oDiRcSMZWg6A4DugRqtGER9VKe1fDT4/lA+MJegdLdlDQ4ojjlve+LAP3wd/q5n6MJZ//9hxGUkN6brOD/42W6os8fB76/qXJjjds+W5WpwrgfWtaLSdLXLIcuPLz7dUWpRgQKqBo0IWEB9fll0vW7dmmiIPvKJ+91v8xiiddjnPfyCUBpNuqhvu4omuLwP0ZQIjttsYJ2fHctQoUqar4DvqMGfv/5Iat/63qySaqmHXQhDZjlq+v/bssPcgVpf43uJ51NScMi0jf8dhYg9PYnw1xsi30M7+eBEhW93wyadnd0LL1HKhbGKYv/LTH3n+3973oKOEjVdD1+08R38ai7X759iMzblDQoGZ9/niJA0/uK6fWWp1MnzP+sBXxD4gpB0/uu/lpQFIBqomUBk58+1bNDPRklVdP1+AzolPCLgeIlp16YWe9dMyWS8xiXzF2ZAii93xjnpkqQ/a4ZtPokAyiRl10fCqAA2FnUfDF3159RbvpeNTKCHj610YLl2NvJ1zq9i5FEUhmZb+wQQMATkwe6pxCY9nx1EKDYKlA6vTjEttzH5TPYckToDmh7vtAesOz+31lXmyJpNBg/unqPABhz3RD3FE3E9gUGQLUICJkwsb2bmClV0y3QjPx9sAbEmW+LXW2KpJFg+uqdLWag008/NGDziJqRtzQDbM6lzxWPR9ietGVTu1JApWq6B7o+6772A/XH4662RNIoMC8b9lCCgIDBb1zTxA3LdQBgXH28tI5R2KpvY0rEStEAqJUd1ABI1XQX9P1HK1D8VrVRbomkroiCAwsPAfhds/BKN66KfTbH9q829pYLZeFs+ZquVC43CRRI0HS7bW8qLNrb39WWSLweddtjh61Am3E3uWEB4vMU788AQNfxzakXtN2UDtVmHtUr0td0G3SDxmqg8ENT9btKJHXBPO/HI1ZQWj//xSXuXKPQYgVQQsY9PaiMSKZvAEJaujAWK31N96HNpA2JqGs2XeJqQyTeTfGfL5wVoLtqxuVuPDoH/EdtTESJvvKmPmV0Sj13COjZWqqmBNBeMvicStoPQ2vdml0iqZ5VP687A2hibx7v3qKJ39ULk7Q3XN2nednhuJqSB4wKd5VRSNV0K1pN2ZqEaeuGCa42ROK9WBa/scsM+N58V2d3v/u1Tf77lLVzi4u9SmEBiHKl7e7+vjUqNDP+TFY5M2+UXFcpqR+sB95enmMF6DKjtzuHNEvoHEuFkbiA0qRNFyFng9yJqOuiwHjgmKvtkHgrBWsWZFpBafXBlmkeIJqlpToqUnXJo3pGqqZbcXlnDRzb4MoMXon3Yj76yeMFQMiQ/zzi767rgapFAdcmuUvVdC+Cp/hA5vYUV9sh8UqS73hRgBJ5z9JbXW1KHRDgYuGSqulezAwBdd1m6WxKnE/O7B0WYPhTT7lzanu1KODiukdyNsi9aD/qT0ic16uj/DmTOBfL2oVfmUE75oWhbp5w5PbIm9O98H3YB6xLdjjUmV0icRjLylc+KwJNy6v7e7houry8pvQ13Y0Bk/+BnDeybohwtSUSL8J69KvFZ03AoFd6+7vamDri+hG69DXdDL9Hw0Ac/jjL1YZIvAnLjp9PmEAz7OuxHt+bSs4GScqhdLo5HMSJja42ROI9iPSv7s4EfNre3t5da2k6jsw8kpSn1Zsv+oL4VtbZlDiL49MfMQNBtx66w9OH50hfU2IH355dgN2yg5DEOVh3v7xNBXrc+6oXaKb0NSV20PQaqYGiRa62Q+IVWI//cM/vgG7Iu69FudoYpyCAiqvTGxKpmu5HWI8IEH/JvmsSJ2CY86+dKtDy/jEesfC8ely/FFSqpvuh698VODBHFnWX1JniP37KBnwnvz/Ow9M03QiZr+mGdOqyxULO7KneMaCSuA7rwa8WnQECb7+vs9c4SHKELrFDyPg2YN107yazqy2ReDbWQz+dBfSXPt3Fe+50ORsksYMyabgvFC1fKtdVSuqAKFh4R55ACVryQ7Trg4HOQhSBa1tUStV0S/yuHamHgl1nXG2IxJPJv/s6Ayjhv4/xpuYARUsBfaQrY4tSNd0R36nftQP27JQV4yS1Z/dqExB7u3cV0MrcBrRvL1VTUp6oGUDatnRX2yHxXE68kA5K99dejfWe4TmQcg7o78p26FI13RTfW31BXb5fOpuSWrL/zd0qSuRNk71peA4UAMQEu9IEqZpuSsdRwKndRa62Q+KhmP6cVwSRt13pFasoy+AGkuUGJkjs4fuAHqz/nHJ9CVaJR7JxcY5AP/Jh7wpq4g7pmlI13RVlQA9g9wlZ+khSC6zrXj0oUDr8p6WrLXE6Fqi84W/DIFXTXYm4QQHD3c/nu9oQiQdSsG6jEYIu6+ZVE0EAnAEUP5mvKbGD78AYBbK+lF1+JTXFdOp/L5lBe9Mb3iea6nygaSeXRmularorSoe7OiqQ9Z5cICSpIaduekWApsOTrjakHsg5ArRtLX1NiR2Ulg/fHQz8s8PVlkg8jPw/dliAkY9FutqSeiAjGegY7VIbpGq6L37jhmog4zOjqw2ReBKWzW//xwzasW/e5dKkxnqiSABBfi61Qaqm+6LpeVkzMG9c7mpDJJ5E0Tfvm0HT6qbent9YzQ6ZAHrXvjSpmm6MbkpfDSS9s0RWjJM4zLxVRcDwT7xtTVAJawUERge41Aapmu5M6xktFEzbFxa62hCJx7D1m0SBMvj9Sc298t4uWKFCZHs5QpdUhubWG/zB+OMD+2Syu8Qhdr28zYrSdFo3L+3ScPoc0LmnXBskqRTff/XRQMGi3VI1JY5QvGadCUJee97bVp+XIDbmgU/ntq61wkt/kbyGwDut2wW568e3drUlEqegms2lpQX0Pk73WcSxxcWgufJmZ5/YXTDvMUBEN9eGNaVqujl+t/WYlA2Lr4n2ygnRxoUwF6edOJNdqppBrfq1c7JuZs3fCrR+zWvbURactUBUVxcPkaVqujvtpvwC6T+ZJ7g2AC6pMzlbDqSc2Ztwfq2XEjl2ytiWzvw1VA99Wwz+9zRx4jndi/x0KwQ1c7EVUjXdnfArF+Qjfj8+SKqmJ6PGr964/VRx2adExpwN028c6MTP9fRbCcDw6733rjargNbHxVZ47/vrLWhiRy2zYN3/7TOutkRSayxH5m04klyxMH/K7O1TR4xw1hKelLvWAAHXutoVq0dyTIDW1QEIqZrujqbT2y2/sWL61O8+6W16KKYVH+zJttfMRBTuPb3qkcucMuFtnP39RkA/up+rXbF6ZGcW+LQOd7EVUjXdHt9OE9YfV0n65WqXdpiS1Bb17Ge/JlsBFEWJHDMzGAWEkvvFZiuQu3PjTKdcpmDuFgGau55u4b3phEXbsiCga5CLzZCq6f7or1KeOSnE7kuevtE7F8l5N9a0NV/kC1B8w7vfMCA67LymTfn8q7RigS7VKZ9q8WvrLOB/xyuudsTqk8R4C0SNd7X3IFXTE5i0/tsC1LOrJ8qsTc8j8daNFkDXeuIdPS+KsUQ8c+3nyzIyxn/lBN9QZP3xdyH4zHjJm0VTHEkUaFrHutoOqZqegO9lRb/nY141+x5vvie8EvO+9ZstQPio62aWj0sr7V+9Yf/WmSFOcJ1M/7yRALph14bU/Vzui+VIGvgMcHkBPKmanoD+kh6n11pJ/6H3JO+NWXklGas+2WoGzcDLrm1rRxx9eve+yVKkrfNSF8ue3xIFtHlxTF3P5NZkH8sDv2EuX/AhVdMzCHsuYx/qiXm9XVvEWlIzrCveOGIBpcUNt1Uyg2Hdvfy0T+9x7ep0I6b8NXc14P/0yLqcxf05cViFkN6uNkOqpoegv+TZG81YF8zyzvpf3sr2b45ZQDf80f72k4ssx/9YejhfaXn0zs51uRPPvpkE6Adf7nIvrF6xHDwBuIHjIO9BT2HcMCD18wxX2yFxGOu21zabQNP51omVdAczLflsW55Qk5YfFna3O0biHUkqKM9/6uVR7/y4POAy16ejStX0FML+5Q9i2UeyrrvHYNq2qhg0M5ZeW4mnuenaV9MEoB7fVGx3D4dInHpIBf2L93fxbleT1CNWCBjtajOkanoO2v43+EPBJ+dcbYjEMUTcNU8aQDNrXis/u7Pkata2pTk2H9OSmV/by+S8MuAgEDxuRLCr0xjrGfXsQaBfS1fbIVXTg2j26FAFspfKAsWegdi71gSati9UtkP6Y0+bQdEA2ojaLnexnFyRLiDs0d/HuX7kWr+Y4pJAGe0GL1OqpucQe3UQ8GmOq+2QOMTB1/JBGfBgZbU0LFsXmEHx1wHNetZSNc07ntioQsT9j3t1oiYA2dvN4DPUDTxqqZqeg753d+Dkd8ct1e4qcTmm1w6A0uzxByPsbzfv+U8+KANaWEHbY2itQpIi/Y8X1gF+Yx8OrYOpnoE4txloFStVU1ITugzxhaI3ZptcbYikepauskCT24dWVtXM8PkBoOkAvRXCxrSv1TXUQy+vBniqEYgmlrgEYHSUq+1AqqZHETC0owZy1qe62hBJtRR9lQOasXe1rsQ1Ms1fZgKfyZo00HafUbsCHrlfnFJBeeGJkY2giKD5kBF8Rrq4ZRAgVdOj8Jn4YQ9Qj610tSGSavlthxVaTGxT2fa8X1NA03l0Zi4ETupcq/tQ/eofC+heecTVldMaBOMeAZEx7rAuR6qmB6GEDennC+nbC11tiaQa1nyZAdoRMyq5v4p+v2KNFSJmBR+yQtj0WklB0XNvF4G27+SwOhjqOeSeAFpFuYNiuYMNEocJfKg5WJb+LlPd3ZuiuXusaLpeV0nbM8uOL7cWg8+E23YeBU2vTrW5hvXkD1mgmfht/8ZxEyefBXq6xfKnxvGGew+de2jh3Nfb6rIArxxq+r49cYVOPKGEk4dNEHpnJUXaRd6aLWbQj7rh+Boz+F5Tm6ikecsVyaDE3tPNDSaVG4J1xaDv5BbBCKmankXgA21B3bOtDgvwymGNe2v00FsXZErZdB7WLQdB6Xyb/a0i89fvi0Hp+vXE08eATpfV4goJ/zwYB0rYdeMbyS1s/AMI7+iUFkt1pZG85d7DlHu1YNiY7LQTGpf+nGvc9eFOueTIeaRsywTtNPuJ59b1b719Fmj9UITpXC5wTS38p+K/Ht4PNL17SmNpinLsINC9kztMBslKcR7HjZ+chY3HY5z1e+dzMB2Kd60aUEkMTlJj1F1rVQi42t4285Hlv++xAv4PXh+QWwzQp+ZXMG/+LUVA6NN3usWItQFQ55hA26/SnIQGRfqankbELCDrd6dVjNPObAqYl5+RQ3RnUbA7HhgbY29b7mdv7LQCIeNn+mPMBQis8QUs65/ZqoL/m3c1FtEkeR7Qsr97rBuVqulp6CcFgbrga6OTzqdMuBvg2Em5TtNZJK23gs/DFctMmI+/e8OcbICA8Y+2Vkg7AETVuIhP7r8e2g3ohk+vueB6KosTgD6D3KMWnhyhexqarpP/tpD98U3O6lepfyTgaTCmWCpb+yepGWrycfj/9u47sKl6/eP4+yTp3hTK3nvvvZElWxEUFdyKE6977+v4XffAgYoDRQUFQQTZICB77zLKHm2he2Sc8/ujgAXakqRJz0nyvP64l6ZJ+tgmn3zPd9Ki1aW3p/79w8aULBUwNX2sf3wQ6ol9QOPitvco1pef5wDKB8MrlbpWX5E1MwdiOxnkjFZJTZ9T+Zkja9BOfPSWp2acRFUBCJD5K2XAfug4MOzipX9azidvpzlUAHP1mx+oYAJsh04A/V0bz7EmP/J7Pijh74w1wuLCMnLoiAoN+hlglziQ1PRBSrM7dmbCN4+63EYp7gnNAFbp1/QQNU8DzGrhW84emjj9XJ9KSMcfqp27OUcDqrjUS6b98uxhgNhXxxliEk7Z0NanaFjq6n4Q+jmSmr4nqH3HRRrpc27xUCePEhuSD3vzAqjp4lWW8qF58H3r9gVdHqo15eiehcsyAFBiarYcd2G2gnLhf5x24M/TgKXm4K4GaXeVCeuWDIhuZZSxL0lNH9Sk/9oMbN+OKGbnRleZqtZIhLVpHnq6gGeu2Wgz7H2sXziKBo7MvbtOFcyGDa3fpEXvVv+2ETUAlz77Ur74Iw9Cut47PKB6odP25UJsa6OMXUtq+qDgjg3Wo23/dGQ9j/z5lIQ2iXDwaG3p2vQIpU6/nVbUnTsvud3Sbkj7luULh6QC56LTOdrRyb9kgrndmwGy9vy8pBMqSnmjXKBLavqkps23Wjn7oelhz/z5IpsCmac0SU3PiOm9eMvl87jCRj7Q+pKrag3AhUVZ9g2fnQSuerF9acrzPeqOk2Cpa4QNiQFJTd8U0XvFPk1LWZ3smaUSpnCQ4SDPsbS5IXv/xdtSBTUY0rHtpX8tUwhAitO/d3X9cyc1qPZKx9LX6FPydqZASHvDDH9JavqikGvqjDuAuv6vWz3Su2UKApBNOz1FqXBrzfnT0s9/aa7crHvbOgmRl3VgWiqXOwN/3+/sH3HX9UeAiLfaeKpQX3FsTz5EdjTMtZCkpi9SIlt3PGzn5NrBFT0xjm6pVO4MJKnGWHjhB0zlrx329FG7SUPRFCKqRoeYi+qHNFevfQa2nnFu8kLqG9+mAFFXtQu0N63jn40aJDTSu44LAu0P4C/CH/3rDOo3J15u5YGoM5eLPgPrZHGQ55jNdZw4QK1yhw1waFs1Z57Rvvf3FCD+lVsDboZY8orjwPXGmeMRWENxfqReBzPY/97piQ3eTAnVgEOZHngq4Yrw8gBLtl166GjuoT1HL9lnwLr8zn2gVH72loALTW3XSiDmBr3r+Jekpo8K/c/VCmT8ddoTT1auLpCS6omnEi4IrVkOePee7/cUGnK3Z5xe++J/3jlU+I6OpJ+f2AlEjbolcDbsOC9/5wFgYE296/iXXKH7qJB+EatTYN7tri3IK1pYOeCsxzafE04y1W+6UsWxek+PHm1qBJs0IHvf7kM5R5bmr7c8Wmhvjvz5L58A4h8cEHihSVZiPlhGGqjXXVLTVyn1hn0NZ94+Nrr0u3kXDKKrV7qb8DBTk0fNK21oZ35fUrdSkIKmkHvkWIYGJK+8ueKFMWPbP5NOahD6SgC2NCF9twYVmupdRiGSmj6r3IBf09Hmnxhc+tRU3FgQLUrPVL5/WupOB2jpGy/5lqVO6IVVB+qaCTuAkPcDacOOC7TUg0AdIx01IP2aPsvcqHcQOHZ+UPqnKkhNOS647IVeO21CEXtSKOEPvHThjJPUp27dAVi69A3E0ERNPg20NNJ/u6SmzzI1/fQ+C1i//r7UT6W5vo2E8AglquF/N98bF/zv+1Axh4SFNfjPjTXPr77UTk/eD4R8/GuRR2r4PdvBTDA1NtIWT3KF7rvM5fut3mjjxJShsR55PvkE1UVo3Y+fXTR7V1bBwkpTuZZX1wqrHH/+u2razutTQIn7b0BengN52xwQ7ZmNajzESLUIF1kGW59MxHFwU2+PPJ2sQ9eJqeq4MWfS7JoCWkh87EWfXhnvf5YCStSDNwZoaJKzDahY0Uif6ZKaPm3Ab4esnFzYvZR/xoJ+zTxPVCTcElSx6J35rWvmpWpQ6fp+oWVckWGkJAF14ow0VmmkBBcuC78qDrK3nirl01hiQoDSPovwOOvi59apUOnxVwNq6/bCtN3JoDSO0ruOwqSt6dt6VTqtqfs2unw47MWCE6LyYatnShKeoh6aNn09ENr7RqOc/VD2rL/ZIaS+oSaqSlvTt1VtbYHD60p5OLqlQiyw1VNHrAvP0Ha9tx5Q3n8uTu9S9JM0D6jbpPSTkj1IUtO3BV0XBrkrLz1swUVK1WpAco5HShKesuXBUxoon4xrEqiX58DP6UD3hkbq1pTU9HWdE0Bb908pZ6hXqAQknfBIRcIz7Hv7H9AgdGKgTjkCIG0aUKWbkVYGSWr6vHL3KJCz52zpniU4BHDIFbqB5LzYKRWIH9o2YEfPARJPgtK2vbFWYEhq+rob48Cx5XjpnkQxgSxEN5R9C9OBii9MNlhilLHNuRDcoIreZVxMUtPXxXcA9h7xxO7EwjiOv71VRany5O2GGjwuc44tNoiuabA+CklNXxfUR4Hk3bkeeCpZHGQU6t4P5udB+JDbAnfKEQDZBx0QX8tgzW1JTV+ntAsF+8ozpXoSkwnQPJG8whPy//r6NIRcc7ehJnfrIOW4CuUNtI07IKnp+5Ta9YHVR0vVUAyJDwVVxtANwvrXxFQNGj/X1mCNrDJ3ME3DXMxqU/1Iavq8+IFA8oZLT+xySUj5UHDI4iBjsC+esFuDqA8a6F2J7nZmQki1aL3LuISkps8L6xIK6qzs0jxHcNUYsO+S/TuMIPP+Ww4Dof1bBvykBmtiLoTXMtrcK0lNn2dp2BZYmVSqJ6lbCbTkUiWv8JCkX04D5X76KUbvSnSXvj8P4poZ7dNDUtP3Veplgtz5pXqOCjGgHpFTKg3g5H1poFT/eKDsrMPuoypKuTp6l3EpSU3fF9kiDpheqo7NIAugyaRP/SW+vh6UmAnDDbVfhT4ca4+DpU5lveu4lKSm77M0bAlsTyzNcyjK+f8RurJ+9X0exF3fT0ITkremQ0Rvg81xl9T0CzXamCF/tt5lCA9YOi8dgns82iLQ5xwB7N5ug8q99C7jMpKafiC6WQIwuzQbvSkgV+gGsOvzXRpKw8fq6V2IEdi2HQSlVS2967iMpKYfMLdqDBzYrncdorS2v7TQClH9O0pfCZCxPwNMg4L0ruMykpr+oE4DC2TMKcUzaHB+5yOhG9uGeRmgjH9Bhs8BUg46ILKb3mVcTt4n/iCqc2XIXVy6tehCb+rqlzJA6fqK0dbC6OT4fqCu0ZZTIqnpJzrVVtCOb3D/CRQAtZQ7wotS0Ta9lQRK5c9l+BwA+/GTQDPDjaBLavqJGg2DIXWl+6M5oZFmsCV7sCThquz//AVUu91oO/zoJWt3Gpg6611GESQ1/UJo93KQszfT7SeIqBkGOdtVD9YkXDR9nR0ibnkksPchvkDbP98B4a30rqMIkpr+oXk02E5luP34kPrRkLO7VOuLRKmsej0PLIPHxupdiEHkLNoKtK2tdx1FkNT0DxEWStUvqTSLA+vBNI8VJFw094WDYKo+sq5MOgJAOzI1DyJvL6d3IUWQ1PQPEWbg5G73n6BcKKgZsumRXnJ+WWmHGo/2lzVBBew/7gB69TDebE1JTX8RW8cCScvdP5vXIk0cXX07Lw/CB4+L1bsQozgzyQZRowx2OmUBSU3/ED48AvKmTXf7Gl127tCT7c8vToKlx8uBfk7Qv+afBPp2Cda7jqJIavqJkQ2BpMWJ7rY2ZcKmjrRlT24FpcHoeL0rMYysz4DIvjX0rqNIkpp+IurBENC+e2yPm5OHwiIUyDvr2aKEc1Lm7VUh9sXb9C7EOP7ZCrRqb8impqSm3xjcwQL2FbvdnOkeXSsYzu6VI9F1kDvrWysE3XGt3oUYh/WHPAjr2kjvOoomqekvIl64XoHMP90cBg9pHApndro/nCTcZZ/yYQqYm0yQPTsuOLTWDrW7RepdR9EkNf1FcO9bE4C/Trr3cFOHSMg9KBuAlL3Ut7cDbV4w4DYVulmeAqaGbQw6RCmp6TfMjYcAp991s7FZP05BPXoYAC3v9P49h7I8V5sowcv7VSh/vwH3kdRN7qoMiG5t1M8RuSjwHxW6/pCH+tNT7h3pV77xTo0jW6tk2+2pq9cdyNBMlbsPbxolk6697fupDggeP8xoh37rad92K1TuadQXn6Sm/wju2HueRmbPV25wY3MtzdJ5psqJp5/MBU1VVeDwuo8rd+ndtnpEsEEvlPyB9u476RDUtm+c3pUYiLbogEZQk1Z611EcSU0/Unfo+hSNEz8Mczk11axDiRs0cBTu19QcuQcOTAlpeW33GvEh0pXjHQfnnNIwtfs/A+5Yrp/UtWcgvLNhN2eW1PQjlu5jp57AsXflENcyzpGx968f9xUzZSl/7dqobgNbN48tfX3iMqnvrVVRqt5uxF0kdaOu3KRCuQF611EsSU0/Ym723OmfbZz+tZcLn9LWtEP7ti7cVnjKkSmyQpVoU87BI+eWCmXOnV//9huqSnPT4058MysbwvreaNQePF0kzz8ApvbGPadTUtOvRA1YepT8Vd8Oq+bc29B+atuGg3sSk/9dUFS/baQSWqNWnThz5u5NSXsPnFUBHLvf3nT1dQY8i8C3Of7+9CiY+98ZrnclRuLYsNgKcfcad3hMUtOvWPo0OOFg/3sxNziRmtrZzUu2JyblnFsPZK56wgYV7m1EUESQAjS9OvXwwd2r12dowOmpK4/dL3tLeNb+749rUOuF1noXYijHp+8HBnfRu47iSWr6l9jB25LRjqy7usIV72r76tejx7LOL6GM7Hlt9ac2wr6c8heuxMPDq3XMOnlg05TdAIffWXrrDd6pOkCd/WqRA8LebKl3IYai7vjDBrH3GHMJOiCp6W/C7mgx2Ip9yXU9r3TP9If+SLtwYR7c4d7uCdqIjXBmb49Cl4uKJTa2fo8b/nlzB5CyYH/GrQZ+Lfua3Gd/yQVL137SYVxYyncpwMgWetdRAvmD+RclpmMrIHFL3hXuqKX+fUYFsIRVvvbjtbOvrx4S3DUc7GsvXRJkjqw75sveYSZQ9z80tBSnB4uL7Z+aCqZrvjTsBBtd2Jf8rkHULUbu6pXU9DdRz5rB+tk/V9j7KG30QSCoQuMxU7f8fH/LWDOYajQB1qdcvu+RudOfX7e0gJa/br77J7qJi6TekgZKi0dryBqCwhKfzoGgMY2NnExyhe53WjbcpZH4Vv1qJd7L3HJvJuX7DOlZ9d9xo7j2GzQO7m9YxEhS6A0xX60+Bme/qDAqWt7mHnDkna2glHuotfw2C7O9cBCUtncben9mIye6cEul+yuCfemKkrcnjnrrGsJHfX5zjUIRGdEqCKyL7EU+4OrvXq2iwOG31suh6R5g/+w7O5S7zphHPOhnzQKgwu1NDP1ZIqnpd0JGX2eG/E9K3vtIKf/4hEfvjL3oxRlctxIwN73oR4Tf9nxNUA988bNcpJfepvlpENzn0YZ6F2IsZz7IAlOvPsaeGiyp6X/KDa8JrNlxhbs1e+2pNhffYqrTHjiwrbhH3HpvGKjTXzpV6hIDXvqPuzWUpg/U1bsQY3FMXeqAygNq6V1IySQ1/Y+p1XAz2KZd6X6Rlw1TJrQLAvtvxT0guF9bC6j7H/xKWpulo877Ixsi+nWW999FVkw+A+GDBhl8gan81fxQfNcqwJ+ZLj8wvFk1YG5xmWhq8vndFlAXfrpETsoolbWfHNQwd50gGxFfJO+3HSpK8/uMuhvxeZKafkhp2Q44vsb1BzZtB5xcXdz3Q+r0ahkMju2/SGqWRu7f6xxQ4c0qehdiMBtW50Hs6BaGHgpCUtM/VWsSCrk/uj7YXaVZGFh/KvaBoaPmjg6G/NV/yWGW7rMv/CAPTHe10rsQg8mYtRWUpncZPpQMX6BwQ2j7GmBbvdvlB4a0qQmONSeKv0f4kKZmOLHmSmuPRLEca98/BqY69+ldiMGomxbnQdStxt8jRlLTL7VtqMDhr20uP7BlQwWS/y7+DhHX3BEFuUnFTE8SV3b21eVAnQnl9S7EYFJnbwe6jdG7jiuT1PRLFTvGQs6S9a4/sGkEZPxVQrdlngpgk45Nt/2zzA5Rd90q6/Iuom79NQ/C7zPyAvRzJDX9UtA1DRS0PV/sd/WBwT2qgnXTpmLv4JjzWQYQYtwtY40u5+NcMF83JkLvQgwm9ZfDwFW+cICSpKZ/ajA4FnL+XneFPTwu16amCe1wMasqQZ33XqKKqc1dcqSiuyavAKpfU9XoA8VlzDb/NxVCbzd+r6akpr+y3NfXhHb4ihvGXSa+RxSkrz1W5DfVfS89uskGlsbtZfm0m9K/yYWwUV3lnXexY6+kgqVve1/4vfhCjcIN8Q9awHbS5UEbU8twUE8WmZpazvLPEu0QfMOHMaWvMDCpL+7QoPkwaatfzPZsogYtnqusdyHOkB5pfxWvAGdOlXe1URhlAUxFvS7SVj+7WQVCRnwRUuryAlTulGm5ENGznVyfX8TxwK8alH+4jU8043yiSOGGhArAn8/ucHWqe+2mZiKbVbrsdvXgc9dsVIGo/v+V0HST+se7JyGk+wgZTLuItn5hPoTf2M83lphKavqr0OFmsK/YWdy4TnGqvtMwqPeTl25prB79fcKkPCCo/YOfyEY97kpZsF9Fqf+Egc9f1MWupw+BqdXoyz+sDUmu0P1V8MjT0zUyFw1wcTK1uckLO3rVu/TW/BlvHgcIavbM1dLSdJdj9d82iH6gh96FGMyRD9Y5UMoNbq93IU6S1PRXwT1Ny07DopPxrnahXX/ZLY49v08/BVBu+Kh2MnrutuO/7wfajzX4RmhlLXHirGyIGzfSV15akpp+y1R/0DdwbGPj0r9HrSvfS9EgqN8d7arLMIbbHFvm2iDmaR9Y/VKWbH//mKwRNOBRn9kCSvo1/Vf5nsHg+N1a6idKuu+/KRqY+r07XA5ULIUzf50Eru2qdx0Gs/vHFA3qv+YzoSltTT8W3LjBdlicUr10T5Mz4/V9ViD0y0GxkpmloO6arkHonb5yHVpG0qavVCHih9p6F+I8aWv6sTp9FEhbUKrnUDMSX9ltBVPF69rHSWiWRtq7J8E0prH8FguzL3k7DyKua+ZDvxZJTT8W2ywKmOLq3KOLpL15VaIK5hofftXAQ2UFqu3zgJq3ybKqi+x8PQdMw972pateSU0/FtSsCbBxhctbeJxnS9/5x7wzGoS1m9DRl17WRmT9LB9MQxvJW64w2wubQWn6UDm9C3GFvBX8Wf3W6xxk/q+Fiy9Ja45VA8W+Y+exbavTNZSKY0Z09o1VG8Zlm/MHUK2vT8WD922ab4fy9zTzqc8SSU1/FtfxjyOoqz8c3cCFv3P68jXHrZoC9l37swEIu+pxn9hUwdDS3smE4EFtZa5mYbmf5oGp36BIvQtxiaSmPzP37nTCztmJIf9x/u/8/e/bD+cWvkGJead9vMdLCzRnXtkE1B/iI2sGy8o/CzWocnUNvetwjaSmX0sYuPGApqWuOVXT6YfM/P2SbtCYsdfGeraqwGPb/PGMHAju2tGnrkS9Lufb0xDcv6+PNcDlj+jXQm74qTaoW4o94fwyT869ODRjR/35qoz6lpbj73mZYGrYzxd2Ki9DvyyyQu0RFfWuw0XS1vRrSnjTroccHFk90Mnksz+6YbFmCS+YiB3cfETHquXkJVJ6aZtTwNz9h8o+NCmxDCTPPAGh3fv42m9F3hJ+LuyhmZk4/ug7yLlXpiVhUHZuowEtLZqimeISZBmLZyTtV6HqF76zZrBM5H3/jwrVfO/cOUlNf9ekxUo4uKhDBSfv/8htefESlp6lHT4KNPC1C1EvU1dPS4GQ9p31LsRl0q/p78IfDALHtClnnH1AXGUJTQ/LT0oGukTrXYexHPt+vQot7gvTuxCXSWr6vX6dzHDsfZePwhAes29xHlhkA/eLnP1+jh1Cn/SFA9AvIanp92KeqQ/akZcmunxepfCMlO//1qBiM73rMBR191fJYLllsN6FuEFS0++Ze9wbAdqS99L0riRAZX36XQ4EDZZuzcKyf0lSodkEXzx3TlLT/4V0am8B7dDoX/P0LiUgHfv8FDDoGRl5LWzHFBWCH7/shCpfIKnp/8ztpz8cAo6Nk7P0LiUQOb48pkGj53xs1aCX5T+eAqY+nXxyUxhJzQCgRPQcEAP2Nd/JiFDZ2/01EPVsS1+byu1V6owVQIPHauldiFskNQNB6JCv+wfBmQUH9K4k8NjfPgOWXm19slHlNTvfAMJHtfXN/PHNqoWrosdUAXXtJweltVnGdvwFVLuxvt51GIr1g91gajs4Vu9C3COpGRiCBg0MhbM//lX6EyuFK/K/OQOmjl1kKKiwZUttUP6alnrX4SZJzQAR8nAn0JK//O60pncpAWXFXCtU6lNV7zoM5dBXRzRMrYb64qwjkNQMHI1eiAFt04eHJDXLUN7PhzSCOg3ysQ0kvSv/x4X5KBWv9qGzfC8mqRkwmvcLBnX3plIdWSlcs359HlS8VjY7KmzZT2cgZOTtPvtRIqkZMOInTwwCxwfH9S4kgGT+uhtMjYbI26yQ9W/u1FCavui7m5nInzNgKOHNmwJ7/j4l4+hlRFs+Pxfix8lm+IXk/L3KDvHvlde7EPdJagYOU6ORQeC4+6VsvSsJFFkr9oLS5Vq96zASdffP+WAe213vQkpBUjOAhLeqb4K8vzboXUiA0Pavs0PQ3T63V7k3ZU/fCNR+QO86SkNSM4CY2j7eSoGj727Xu5LAYF2/HmjaS+86jETb8q0NYsb79PiYpGYAMVUeNbycgm35DzLXvSycWpAO3B6udx1GkvvhcWDwaF+dqglIagaYsNuuj4CMv1boXUggUPcuAeoM1LsOQ/l2DlDjhsp61wF8On6am4+U1AwopuqP1lPQdi2QnTa9L3NOCjDaCAFhGBkTcyBoVGcDLDA99M63X7l5vIGkZoCpPTIM8n6bJ3PdvU3b/aMGUf187zAx79G+OgC0GhavdyFwfOSBvIV3Jbv1WEnNAKNMaKzAvmcXSGx6We5Tp8E0som8xf61c3IuhA/soP9eo9qvSRqazb3lxfInDTRRj1QEdffcXfl6V+Lnlq4Cal7v7Dn0gSD70/0a5jYDDTAUlLchE6JaxLn1YEnNgHPD7SGgfvb8Sb0L8W+7nrSCeUBLn11s7XmOpQtzoMLNHfUuBMg4bIX4ju7tFS2pGXBMNzczg23xPr0L8WvbX9sDptp9E/QuxEB2TkqCoM7XGOGDJM8ORNVx78GSmoGn+qvXKZD5g951+DPrd3NsUOn27kZICIOwLliaDxXvMs4HieLmX0dSM/BE9h0eD/xxVu9C/NjWZRkQ2u9W4ySE7hxLJmeAaVhvvQsBQAHQHO49WFIzAFk69gVS3tK7Dv+VN3OXhtLiqUp6F2Igu/+7U4PyEwwwFARoAIqbY/mSmgFIqdo2ArTv5RrdW1bMyYLIQQ31n2FjGCdeXqVCxA2GOnZOUlM4LaRvr2A4NSVD70L8VNaC7RpK50ckNC848r9fHRD1yhv+8DuR1AxIre6qDeoROR7dK7Qty+wQMj5K70KMw/bExyqEjxtrlK1MpF9TuKxP+yC00yvl5DUv0E7O3AI07a93IQaycokNLP0eMsyc/4J+TRlDFy6IaB0N6Rty9a7DHzk2TM2D8AmyGfEFR95OAVPnx+vpXcglpF9TuMDUtaKCbeM/etfhh7Sd7x8Hel+tdyHGkfflSgdKhVEd/CRu/OQ/Q7iqfhUT2t6vdutdh9/J++XBRRpE3hKrdyXGseCXdIgZc4176xe9Qvo1hetiB8dA3oKlsvWRh+W9swII7tdCVgWdt/y9AxqmVhOq6V1IITJfU7jONH4IaKkb3dtgUBRrzg4VzI9OrOcPU2w8InfRaivUeKqm3oVcTlJTuCT07RjQ5m2RYXSPOv5hLgQ9/FQlaWqe45j/Yy4E3zzAgB8jkprCNRWuAk6slpnunuSYvFvD1LSnUaYl6k/b//1BMNV/TO9CiuJmk0FSM3DdFQz27xfJeZUedPivTIi5rr8BzsUxiMxpfzigykMxehdysYLRINW9B0tqBq5mbU1w6INTetfhR2xz9moo9YaG6F2IYdimfpUPwXfcqnchlygYDXIz/iQ1A1fChBrgWLtNejY9xbFmWgqE92qsdyHGcfLtQ2Dqf4uBJh0VIv2awkXBA24yQ950Ny9TxGVy529woNQzaEToIe+pgyrUHl/NgENB7pPUDGAxPaoAf6bpXYe/yP1xUjYEjWmkdyHG8d8ZDggd29VwnyMF/ZpuzlaW1AxgSqNewOk1etfhH7RDTz9zEqhys0w6Ou/rL3PB3KynwYaCkH5N4bZKbcJA+0Yu0T1BS/wmFajxsHunxfqh7N/eOgmWgV/1NOr1uaSmcFlw8/rAPyf0rsMvZH2XDkq9Hx6UuZoF1BlP7ANTiwktjBqaMl9TuKFxcxOkLdK7DL+w6ncg7o2O8pY65+iCwypKlYf66V1IURQA1ebeg+VPHNAqNI2CvFn5etfhB/LfzYDgoa1lfvs52bP/skHEg2P0LqRIYTFmsLp5TKukZkAL6lQL7FvW6V2HH1i9CmhwY23DXo2WMXXT5NNgbnt/sN6VFCm8UhBkJrn3YEnNwNa8nhmO/yKrKksr5/NcMPdoLW+oc05P2qxB81cMuqN9WJVgyNrn3tQj+SMHtnJXlYfczYf0rsPn/bJYhdq94/Wuwyhy3p7tgPBnu+pdSDFMTSPAmuxe35SkZmAzXVNXQdu/TO86fF3W9BQI6XOVvJ/OOfZdGljG9zHs3NW64ZB3KM2tx8pfOcBVuiocTq1M07sO35b/8WoH1L9Bpmqekz8hWUPpdEc5vQspVoQZNKt7g+iSmoFuZBw4ViyWLTxKQZ397VkIbddJ70KMwvHtElDi7qqvdyHFMyu4fQSGzJMIdA1aHtM4uLi7YU6q9kFnFu5TMbUcF6Z3IUax8a08iBzSycXl56o9z6GgKYAWHPrvxb091xTmlfad5l5jQVIz0IXdvygPx1+DB8hlh7sca1fYIfLB3noXYhTb3zoGpnYPNnDtYcnr9iTbFDRFU9Aia7duGAygZezeccDc8BoPfySZARzuXaFLaga83p2XwMHpjWrJTEM3HZu+F2h/rd51GIX1+4X5KDVvaenSo9QDX888mHfhS6V8my6d28UqnJo8b0cqldt7+Go/spyikZni1rNKaga80P+stOL4fWh1eS24x7H1TxtEPy7X5+csmZcB4VcPden6PGXyvE2Fl+poyfNX1Gk1qPuurxemqnBywpdVPFpkdK11dk7vd2sBrLxTRJer5sKZF4/cGqV3Jb7pxORk4JoeetdhFIlf79JQ6t3vyvi57a/P/0m95DYte9ueDa98stIKoM1L9WxqhrSZaSftsM2dw0qkM0vE3hcN2rb3MvUuxDflfDpfhfDbQvUuxCAyp/1pg6ghLuzNbF0y5q55l4YmgHX3fSvOrVurUc0j1V2gdAiGzANuveilrSlMTW+amoaW9M7b0rPphmNfZ0Hojc3klweAbc67WWC652WnG2Sa9eSXc/IAgtveU5eC4SD7vO/TclXU0+fupIz25FxYVYVIBdSc3PNrKhWT839ARebpCXI+fikXEhY3kXe+62aOtqH0nthQ7zqMwb786bWgdPrL+e6e3Omv7VNBCa/a6z//NlC1lLlTthRkpqJBxeUuDsgXzZarBWm5qSeSrdqJl7Oh65gYTKhgKVeuXHR4iHNLmaStKSCka/u/NVIffqOl4c53MTz1DxuEj6mtdx0GcfKJzUDd9yKdfoQjad5+FUw1h93UstD+SEqFsd2f/1ED0MB0k0d6NVP+3qzGqQdX7s86d8PKlee/FRFftWWjunWrRDnRRpbUFGDuMHJnCo5lT/23g7Q2XZS9HKhVVz5uALB9vc0BcY84v3372eU/TwUs1w0efnHzNHP17wsvXAknjPTIDvkr7i/23ILs7MP/mOJbd27euMYVE19SUwBBV6+cnYt97ZS65fUuxdesOQSmFjLZtcCP/2eF4OtGOD8L6+CTiYC58YuXjB5pB5/e8O9Xnap7Ytw68auTJX5fTZ6/rGLTRu3b1ih5aE9SUwDUHX9sjV3LnNfrGplV4ZKcL20QVF/WowIw741sMNUaWdHpR5x+fp8K3HVt9Uu+kfTUVgAsdoDGnpgVp1mir3if/MOH51dr1KJTx4olRKOkpgAwdflo/DqNpLdC+xlz722jWrhcgzrt5IQ1wLH5rX2gtHnU6anj+YsnztXActcTNS9urOd/8csKgEaPme90ACGe+DBXaly77BhgrtK+VbSiLfwDwoZ0NmsKaPnJO/clFUxychw6vHJ69b53Vi72iSQ1BQAhrZ4dnY99y/vVm8vFpvNyp6RASM9u0kIHfv/fJgdUH3+N0zPHrZPna2Bu3LfyJS+6We8fBJQGrwzJqrsXyHF4okDzwF/W2SoGxdYoH26GGn9Afs0bC9qfqj037djKuTszALSsrKRN216rX9w7QVJTFFD6XftbPtbFM2pd+TJGnHfkoB3qDJN9NYHURZvyIe6OW5wOFW3xOisEjX0t4aIZP/a0Dz5L1SDktucqmYOa7AXsqkdKjOjcAUU5t7anIqDaLee7YGMqNez58J4/Zh7KtaugZf72x8TRYUXnpnxGinPC/tspCNTJe2UKr9O0tSc0LE2NesxDmUp7f3I+hF37hPMtsRNTjoFl6FuVLwpN28J+r6VoEHb7m1XN5O0HWJXimSIVi8VsOhd6Fjh3wu+Fb0a3f3nV/Ce6VwkFHLl33bH+bJFvBklNcV7tr9oDR+YmeuRqKCDYtqZDZCvnJyf6r5zpX+WCqfXbzq8sdfy63IZSdfjFFzfqkd93AkqFESPCgbTjABvWunl0eQkUgMtSMaLDq799Ma5VBGD/adAbe4o6iFCu0MUFVW7emIf62p6Jco3upLT9uRDTVtoe5C394AQone6Odf4xe+alQPDg0ReNP2Yun/4NQJM77w0BOJMKYJs60OPTFBQAtYjGZLnB/Td/M+MEkDJx10194y+7TJfUFBcEN2+53oF13tq+elfiK46fcqCU88haP9+mfvfDDqDpqy7s/HR68nIVyt9yceP0yBN7AKXmCyMLLtvPnSK5+pjHU1MFKHr1eVD7mq2mrMmH7D+29R/e69LTieVTUlxgavpCHwXOfpp35fsKgKTTYKoqkzU5+84KDao82c35ZljyxF+yIGhgq4tuPfnyHgdw0/tDLl4SfvaIB6osQnHD5Am3vjvCDHBo0sunLv2mpKa4QInrM6QCqGsW6V2Jj7AfPAOWupc2RQJP7oSDKoQ9MMz5yb7qnq+PAP2fKfwQ6ze3/uoAy23PDz0/A/Z8QmXhaSYAR3Fjn0FtX/++oOG8+a5Ll2FKaopCQkb1NsPpH6Sx6ZS8pAwIbiVvoudn2CDk3jtcWMGT9sExDWq8VKfwjYveX+gAU/3+NS78Ts+n2socj1RaiAolnlJZZ9TXb1QCbEtvvCQ25Q8uClEqjagGtp279C7EN2zfYIOotnqXoTf7W9/kgKVhnwrOL5BQ35qjQvi7hc4WUlPfvnubAyyj5o38t6/zfGpO93xjE0oOQEvdB99rEQTq370/zHD2QSLwKENam+HQXM9MKvZzmQs3ArUCfZO4vKlfnoHgAd8PdGFV2ekvciF8ULt/94rKm9/n8aMqBI/8tEYRO0idmuiVecQlP2nEDYvuCgdH4tyjhafjSWqKi0T2joGMtcf0rsMHaDt+z4XgewJ8tmbqrx/s0zC3faKFc1v6FliYBkqn52ue/9q29etHtgLEXH3DRf3EF5J4XlopC72UCYqeeVRY+VdviwJ13hPbC8WmpKa42MAKoK5fIDPdryh/41ag7Qi969CXY+Vzm4Caj7h02lz+t0Dk8PO7w9kSfx5//y6AehN+GnHRkNKF1EwqeZc315Uw86iQcs92CwLmvPxX+oXbZL6muFjNrvvtnJjdsbF8oF5ByjIrmO8M7JM9tQNTjqkQ/vR1Lj1s7VagUetgQLOl7tqw+u9kAOo/P/qSrT9UgCZpJ8zjPD3Bq+i1QZeJmVDvI2DWwUltzr8lJDXFxULumXkGdenSunLmYsm0Q8uA2r0Ce4uos+/8boOwZ8a59Cj7b+lgbtkU8o5u2rZn775sDaDyiEF9itwvqUvNTwY9650Va1eMzfAB7ZQPwbHzpybnZ0NJaopLtB40BdI/zb2pUmDnwZXkLkgGhgb2FHf7p1OtYGpyu2u7smautUJ8rZTTW2YdPJmSXTD2aGpw/6gKl13hBAGYR3WrF+OJegvToMSZRxfEPxX0vgPrlHrjz90gqSkuEfSfOWfRdn7cvaKkZkmOTlEhtKfzZz34Idvs9zJAuf4hFz870tI1ODvxOy0z9fyuHKZ6dw6sXcTAWlzFU3AmqFdpS72cCZzcgi5h+ILtKqffuSmq0COFKKTm2CjQDn+eq3chhqZ9cQDo1yKQ2x3ai/elgtL9kQ4u/hY0ANvxvYknC0LTFBT71IIJzYqajRATD+z30EZxF1EBzM4koLnzW41AS/rl3OW8pKa4VPz/PgsHbepuvQsxtNSvNUgYe+lxN4FE2zXvNChNn23naozEVf+3+9IUmVD/2h/2/rdGcJHXNpGNgBMnvTCno2pliKrkVNeCpdfNYWD/6HjBl5Ka4jKWFr0VyHtPZh+VYGsWKD3bBHJTc+8DWzWU6hP6uPzI2G/6n/tXSO1+D09e9OOoYi/xTR0VOHPM89trkvBDfNjtdzg32za0e2sTHJhacD0fyH90UQxT43EbTsIfhwN91UsJ1L9sENGpmt516OjQ66sdEHHtja6HiFLxGXMuQHDVAX0iSpwdrzQNsmLdm+35KR1BbR87VXxaX6LD8D2p5C6/OxokNUVRzO17/6yS9csjRaxsEwBkLweqNQjgAz1PffZHLkTecK1b53N2+ioTIDT2SiezKbUqHUbbkBrvxJPaM5QoFxIt+inn7xvc46dU7EfPSGqK4lTvNj8VddptCXoXYljr9oOpXrGnGPq/tJ+nnIWgkc+72dwuV87JO1ZocRi2H6135c7EzNl/UqdHJ++scK0UCagF52FIv6YogqVTE9B2PzzT49tz+YncKelgqV38kdn+LvWND45q0P6FGt6OkMieFkj/3oktj45++sMP7734m3e2OTSZAK2gq19SUxSlbotQyJ4xQ1KzaDMW2aBa14DduENLmnIQqDmxzhXvWlohTSJBnfHsFV+Kp59cD1lr3/ZOamoFk+IBSU1RtNB+jc2QN33kLNmguAiZs49rBHfpH7Bvn+zHT2gQ/UVz7/8oc5N+Fkj/5sRFax9Vx2XT0+PuTwDsuyY5+cRaASfvaFMBpeAPLv2aoighw9tev8ZBzqq2LavIkNClcr9cYofqY+P0LkQvtv9bAkRN6l0WHxu1HjuyRiOr87TmMedH27Xcb2d2fv6SsfegVtd9k+7A/sXNznSc5O09ommKai5XLjY8SAEUNED593/QQHPkZaafzlO1tBkbQQktuLiQ1BRFi77ZtErF/vHet2T3o0uof36eDMGtu+ldiF7UBR8AUQNblc0Haosb96VqJA8ZOrZ2fIiigHpq1keHN3Trfsn4e8WX276xQ+PU94858Yr96/6CPWQjK9RoVzNEARMqKIqmgUnTCr7WbMk79pxKPt8eDWlTHpDUFMWJvveqq5NUbEvX1Q/g6TVFOjl/vwpN7nFryo0/2P5sJlh6v1C/bH5cUPdbph6HrJ/mN2te3mLSsG9ckkHqAwsuXZgVOXLv4Qxy/r73yrv37Z6SWvCPrKyDy5ysw1xzZMFbQVJTFCfh2d9na2R/OSBwR4qLlP7LH3YI/k+gnhrv2PK/PRpK47sal9G8K3OrejXePaKipS4rFHDmupdP9QzpPWMrjqOpV07NEyftLtdR9aGeBf+Q1BTFib2l2qYjsG6bpGZh2p5JJ8HcbpTehegl+/s5uZBwWx9XTrwonchbT3956ank5QYUcaJyrTjA4cS+Mz3H7kl2qYTQap37XXsuLiU1RbFMrW5824F1Ug/ZoLiQnAV7VWj0aqBuEZf9/a9ZEHLVjWXZQRFxT6cvFlw0nSPmxquLeFkqhf63RKYRkYdU0Kwpew4lZxR/v5ByVRrVCDNjqVCrbpXzaSmpKYqlVOj5cxIsOFXzincNIIe/s0PQI4E6FJT7w6unQGn4VMWy/Knm6lWb7d62Ytvx/IKvY/qMb3n5DsbnNxl2as/MUfkaoFozU8+ctALav1mrKef/xxSXUC423AymoKB/vy+pKYqnNOueBBnDnrpGWpvnOT7dB7TvFqBDZPnTH88AIgd4f3r7xUy1qve6Pe3EWVU1aYRXqRxbZP9AwfRLpyZ9BJ2bAFChtlrCQZUmUxFPJqkpSpDQYW4K2o4ve8lpGOcd/VKFhEfLOjSMQTv1550aUGFxs7L/4WZzaHzdK9zH+bZmoceYXe2glal4ogTm7iPjwbH+I1lZeY79i1xQ+gbovpoZd4zXgLq/NdG7kmLk2QHF238cSU1RAkvL168OhswFi5Nd+/z2Wxt/AOL7BOa+mo6Fq2xA8087GTU3Dp0FJcrbhy0b9b9eGET09bUVtI1PLnF9eps/yv/kOFh6dA/MpubiJ9PA1PaNnkb9z3dsOQnBjZzZi7M0JDVFiSy9hkSBuu+vS6fLBaZFf9ug6rDA7NVc/8YhUMrf1NuwI2E5BzIgtJO365PUFCULu/ctM9jmbZJThGDDJ8fA1KKPUdta3qQmfrjGDjWfMPCEitxUG4Q09faPkdQUJTPXHdUWOPllohN7avm5/JkrrChVrq6idyF6WPv4rByIueWuWsYNDbsDMBWxZsizjPsLEEYR91YIqAt3SmNz54pMCL12XNktJTSOvLWL08Ey6NFovSspQUYmoHi9LSypKa7E1PomE+SOfaSEhWcBIXv2Wg3qv+j1towBWac9nwlKuy+8PT5dKtv3gNKgqrd/jKSmuKKocdUVyJmyN7Cv0bUtc3IgdJyzx4T5E8eKlzJAqTLN0Gd+5CelAB3kCl3oT6l3fxMFzj600onNZPyXdfM2oPU9etehA23niwdAaXhbJb0rKVHe8SxQenr950hqiitSqt5/Rwyw9uFFgTzXPX13PpjvNHRryztsS15dCVR/6kljTx6w5QNKBa//HElN4YTQAUMiwLH93RUBHJun1qtQpZfeZegg/fXfNCh31zCDf2Lk5wBcvlmxp0lqCieYGt3XNRjyVz0/K2BXpDuO7AI6eHvdiQGdfWOtA4JH3mr00+VOJALlvb+FnaSmcIap7buDgyF/9f82BOqQUNbidLD0DLzNiM++MikTLEMe8frYdCk5Dh8AmsgVujCI4CYf9jCDdd2rWwPzIl1L+kWD8GbG7tnzPO3s65MyQancp5bRdwu0Hj4NDPD+bFpJTeEcpdpHrSxgW7ImIyBbm9a3j4IytFGAvWMcSwd9mA2mTsvvNu5CynPsmQ6gnvd/UIC9BkQpNPpzoBnsDz1yVu9K9LBvugZVxiToXUcZy1ix2Qp0ml6rbM4+LxUF4Gjele5WapKawmnln6lngvzf9uhdiA5sn+eBaUDLAFtMmffTW3lg6vyzLyy9N5kBJn6b5PUf5O0fIPyHUvfR9gqkv2vVu5Kyt+lXoGIfY8/y9rz5b2SDUuNDn9iFObh6eWDvfz7x9g+S1BROUxLG3hIPLJpt07uUsmb94jQE9ekSWGNB6pYXj4DS4Yky6Cv0AKVOSzOQN3O6lwcsJTWFC4L79jFB+mfpehdS1g6tskP1wTX0rqNMWac9sQWo//AtsXqX4hRz7b61LUBQtJfHKyU1hQtMdYfVAHXNvTMDbLL73FNgatEjsHo10ycv1qD83YPD9a7EOUrCzU93DSFsRB8vx1pgXXGI0jL1//OYjczZ5Xr4yDvJM7KXpkN0u8p611GmUh9fbofgUbcaenO4wsxVxwxIOlbJ63NqJTWFS6Kv3bPFTv53J55pFzivHW3JDgfUHBRIV2bayad+tEPQNS/50BpSJaxqFdXk9dn4gfQ6EB4QMnJGSxPkLVoeQNfoqb8lQVCjRnrXUYZytj77nR2COl4dq3cprlHM3l/CJKkpXBR9Z3cFciatDZgTMdSFS61QaWwALUFXN93yHaAMnj7WsAdS6kdSU7goZvwnVYEDv6zN17uUMpKy9DCY+/TRu44ydPa33Q5gyOcVJSEuJ78T4bLqd4WCOvm1NL0LKRuO9csdEH5nADU1HZ9/mg/m0R8E2gJS50hqCpdFXdPZAvZl+/UupGwkz9kH9Givdx1l6Nf3c8FU74GaehdiTJKawmVK3TdvVCD7M+/vk2AA6s45Noh5zPtbhBuFfeWryaD0fLOlxEOR5NciXBfeqld5YMFpvQspC9bEE8CQtnrXUXa+eWAX0OjBQUY++lxPkprCDcF9rlLg9KBpAdDazFhphdCxgXMIevLcHQ6o9OBQGT0vhqSmcEfFdvGg7v3Z/1NTS/4HaFInYN4pKc/8YYOY2+4InFUMrgqY14LwKMtV15UD2871fn8chro9CZSO5fSuo6xkfDnDCsH9npKWZrEkNYU7LK1e7WyGpNl+v0IoY4odQtoa/Exbj8n+/atUMF91g/RpFk9SU7gnZkgM5C35ao9d70q8a8ESoG4jHzj/wRNSJ3+0H2jz1gi9KzEySU3hnqBBtRS07W8s9u+N3XM/zIbQYQFyyJqW+L8NGtR4pXlg7YnnosB4MQgvKDc8ArTTn3552p/PrFyyGWjaP07vOspG0n+OqhDxfCAtHnWDpKZwU/j9X4WAtv2To3pX4kVZn+aCuXvrwHifHBu1WoWw50bJSFCJAuPVILzAFN+ufxho+9b4cc/mzLUqNOwbEEMjtoMjNgLBrbsFytCXuyQ1hdvqTJsYDOp7J/QuxGsyf06FiMF9vL9lo/7yPu6xQYPIx+Z0lU7NkklqCvcFNW4B7J9/zF+32kw6qULtwYGw25F2cMlJDaLvezw2ED4jSkVSU7jP1HhoMKgT3s3VuxLv0Dac0Ahq3EbvOsrCkf/7yw4x45+O1bsS45PUFKUQ1rqBCXJnLvPPJUL5m89AeNtAWIKe+vXvVrB0eTxW70p8gKSmKAVzx+faKmiHX/wk0R8v0vdvy4O4TgHwJsma8fVZUEY/Eat3Jb5AVuiLUjAlDNmZmIZ90yn7Pf531K91yXYNpUJjvevwvrT/TT8KdH++ofRpOiEAPkaFN4XfNTQc1OPvPb/X767Sd85KgaDBPnSyrbuOTUrUoN5/G0hoOkNSU5SKUvWpzhZQj3y3zd9S07ZqpQo17vb/eTgHr07RIOa1jhIHTpFfkygdpcn02ysCKa9t9bOVlfv+yAHlocp61+Ftjo29jmgQ/frwANmipNQkNUVpxX76fRywdUGSX40I5S5dDlQbpXcd3mb755bDQMKwNhKaTpLUFKVmajoyCNQXnsvWuxJPOvxtNoTc7ee9mo4jMx/dDlT4zycd/b8rwkMkNUXpVRzX1AzWOYttelfiObaVG4FW1/v5LJP8uY+sB+IevT9aRoKcJakpSs/U5PleCmS8l6Z3JZ6TMtkGluur+neW2Nd+e1yF0Ofui9K7FB8iqSlKT4kfdE0CaBue/cdvWpu/rgOad/fvJejqukdXqRD85j0Smi6Q1BSeEDJ8QDBk/zTNX1Iz65N8CB/j57O+d9y2EbB0HhIIi0Y9R1JTeIJSYXB9E2TN+s1PYnPtAaBtL7/eafLMC0P2AMr/Ta2pdym+RVJTeETI6PntFLQD85Ly/GHaZt4HNgjp29yfm5qOwz8cBqI+uKeynw95eZqkpvCQcqOiQftp+HdpfhCbm9Zp0KhrqN51eJFt9U0HQKnwwm3+t4OAl0lqCg8JvbOLGRy73/wuWe9SSs32UxoEt2+tdx1eZF3x8E4g8sbb/boXwiskNYWnhD92nQW0g69N8vk1Qokr86BKn1i96/Ce/GXPrgfix4+UgSCXSYeG8JTg3hG79+RB6sd1Rvr2IYfW3w9qKHW7+m2bQjs29bfVQPjTd8uUI9f57etClD2l4bO9w0A7+d+fs/SupVQ2/5kGMb2r6F2H1+TPeHMNoLw5XkLTDZKawnNih7z/ZAVgz5s/WfWupRSs87eomBre6L8XYu+8dUYD5Z3b5fLcHZKawoPCGtx/bQjYd7/9sw/P29zzdxaE3ui3kxhz73vrGBA28S4JTbdIagqPih7RPhjUPbcNXOarzc3seSs1qDrOT98buYndPssEIgd2lilH7vHTV4bQS3C3O9tZAMeGj/f45ubu2obJ2RB0X6zehXhH1ifdNmpgqfb2zy3l3e8e/+26EfqIvKHCN8tOQ/rcnrV9ciZg2rxEoOU4vevwjvTZU04DIR3/M0Te++6STxvhYSGDpjxcWYHsD2f44i7F1rlf2iH4nli9C/EG7dTnL20BQka8MUJC023yqxMeF3yv6eOjsP9NzQenUP/5TjKY217ll+2JE0//mQLQ4cUAOK7YeyQ1hefF3J71Ti7qnne0kb52kZ775hagxRNV9S7EC3J/mzoHgJcGNNS5FN/ml5+oQmdKXP8OQeDYOSVT71JcNX+TA8rd2d+3FzcVLeujOQA1Jz7cSd73pSG/PeEFlhZj65nBvmL0D77Vt5n5gRXMY0f745yck+M2ArT79LYYvUvxcXKFLrwhZrTy/i47eatrdg/xodeY9s0GUBr0K693IZ6nHrpnkQqmvm+0kqZSKckvUHhF1OhHu4SA/edxq+x61+K81F8yIer6q/Suw+O0jDX3LVAhvMftzeQ9X1ryGxTeEXnLlLYmsK9d5Du7FGurjmgoDQf632bEOT/f8BcQeuPP1/tjj20Zk9QU3hL30DUmyP1ujs9sgJQ1+xSEtmupdx0elzfn68MaKLe9laB3Kf7Ah/qchI+JvL7Z5v1w+IsOjXzk+J1tm/IgYZjfNTVzPv98DxBy56txepfiF6StKbyn5gPhoK7/1kfG0a3L94OlRSe96/C0jAmv7wFo+ZCEpkdIagrviejbwwzWb2bk6V2JU9L2ZkLYNX42L8fx45hvUwCe/LSG3rX4CUlN4T1KvXvqA6c/8o3UPLzfAXF9fKQ7wVmbJ86zAZX/90Rrv+t60ImkpvCi0P7jo0Hb/qUvDKOrO3YDbfzr3Avb7Lv+UcHU4pOHy/nZx4F+JDWFNwV36xMCed8n+UBsnt2SCkr/IL3r8CDtzMR7N6lgajvpGhn49RhJTeFNlpZ3NlTQ9r223/Bz3fPmz3BARC+96/Agx7r/PXwMMA14oI3etfgT+QASXmXpt+pgJrmzYu6vbexPaO3A50fA1MaPRkzyFz++A6D81R/52QiXzoz9Sha+L/jaRia0M7P+NuTxazkXNmVyJG5wQI1H/GffjkPvPrEDoMGTH0toepS0NYWXNbo6KRn10Lxu9fSu5FL2A0vXWh9pVfBF3rocMN/a11+GTPKXfft7NkCnCUN9b29oY5PUFF4Wen3idBv2xWtrGezFZt/z6azjxLcq+CrzbxUSrgrTtSTP2T5xyQErQL37h/vLf5NhGOyFLPyPucGrpxZDyleNDLZFmW31n0c1fox/xgRwahvQpqqxSnSXY+PLi3MByt12Sx0JTU+T1BTeZqnzQecstBXPvdLarHcthdi3/HRIQ6l0iwKgrU4DU7tyV36cmp92OtXSJN64l/Ja1qSXchyApeYnPUOMW6fPktQUXqfUveNjB9ZFtrebG6gpZ129UoXQgeUVAPtUDaIaXqkHUM0/s3PSojMQs6tyGdTolrP7n1kAQNStr8owkDcY6FUs/FboTXVNYF35uZG28UianQtK90cKLmBPbAKaNrxCKyJ1xaQbBk07A2T8ne/1Ct1z5rVeCwCi2jz2toSmV0hbU5SBGmM/P66S+9t1PQzzglOPbwFCbjwXLJtywNS2eokPcSR9/+1hteDf2sQ+Id4t0E1HfpiaDVDr2rsaSJvIOwzzIhZ+TCk/+uzUkxrJb8S2MMwrzmYFLLEFyaIudkBMoxLbZqmz5yw+c/6LkNejvVuee9TdE39OASI6jxsi28J5i2Few8KfmeuO175LRV37w5WugcuMUqn5KshZ0DcYIOsfoFq9ktagJ3/49XEATJW7xVsatDLiSRKO1S+tzgLChj7ZzCi/aD8kv1pRFsx17z0020bmnM7DDbI7hlJn4MY81NnPRADsPQRK7drFjzfn/fr15jMASvuRrRqEmeKM+M7JfHPOFoCIL9vWk6Fz7zHi3174IVP1oZsPatrBL6u0N0hsRrRvuAVOnqoCMDcLLDUrFX/vjPc2ANDmheYJ4QbtL0x/7ttMgKYTu8j72psM+vcXfifk2tGRYF250CibH1matwLQAHI3WaFCy8ji7uvYN3gzoAT1/25InUhjvmkcSzt+kQmYh83sJqHpVcZ8AQj/o0Q/1cUMWTPXGGWrzbBIQEsFSE20Q/XWxV3Vpr/edYMDLO1mzG5qpIn6heTueeraPVYg5MFJ9eRd7V3y+xVlJeSuasC2BWcMEpsh0RZQ56nAWRsQUcygs3pqyrenNYge9MIAIw4BAeROH/z2WSC43rg7KuhdjN+TprwoK6GD97zgwP5DleuNsRoxtGGlo6irMmJhTxaYY4q+QE/7Z9bPZ0GJu/Px8mVboPOy50zcDxA56PZexpxG6lckNUWZCb37tw1w5MOmPQyRmubmdY6iHUuOxbr0DIQ3jC3iTo71s6YeBDD1fcqwEyDTJn++B6Dp6HG1dC4lIEhqirITe+9DOaj7P8zqZ4gGUaXygJoD2zfkQbnOlw/u23bMmbchFyDhoX5RZV2fszImzE0GaPI/g65X8jeSmqLsmLv1XGTFMSu5myHe3cq5/3WsOKChVO1w+T1yvpxasBqo04PXGHXDNfXH6b8D8MTQLjJMUSYkNUXZUarfcXKrA8f6jx43wtHcBaNSJnJ3pEJ434TL7pD2yg/pAMFdnu9qiJwvQu7U/0sEqProWGN0FwcASU1RhsKHtnlrkkrep8H3xOpdC5gK9ogjK90BEQMvbajlL3x3TTYQ0vn+7vEGfaNo+16ana2C0vSVQUbNdf9j0BeD8FPB1fot361xcsbVIaG6t4xUDcBMXh5gunQ3Di1t6XI7mOrf9IBRh4Ecp+a/uQfA3O1dObq37EhqijIVdPWmiWmatu6m50foPvfRbAIcZ7Utu4DwS/Y7sm774T3A1OnHmjqU5hRt530rAKjY+p5W+pYSWKT7WJStoKu7hYK6d36K3pUQHmeBrCUZaw+A0vHibk3rvLHvA6YaXxg2NNn6RkFotn15+gh5I5chaWuKshXU5qG6X+RgXTTwGr0XJ4Y3K3ea3HXbN9jBcuNFTd+Ni77ZBTBwhGEPurAv/t9CgEp97u+idy0BRlJTlLGwvq3WroLDvzavr3MDydyhymkcx1ZtAOpfVfg7W1790woED32+md7RXpzcrz/dBVDlgdsq6l1LoJHUFGUu9rkRVtR5g2vr3bNZMQI4s/IMMKbQdEzbvI9XWAEa3dbEoKGprflm5imAfg92ide7mIAjqSnKnKXXoJmQ/t8Tt+v8hjebgNP/qBA28N9bD384/ZgdiL9lbF2Dvj/sq/+7NA+IHPVEfYPmuj+TTmRR9kIfjgVtz0epOtehaYD1DHB13Qs3qjunHbIDMQ+83DJK99lRRcr+4JpFeUDkY+81lNAse5Kaouwp9e6oANqRN1S9KwFUO4TffWG2prr+mcNA+LB9L0YaMzMzNw15PMUGRE15IcaYJfo5SU2hg6qvvRQBTEvUtwzlfOY0qnG+yaauv2MzEPnIT+WNGUjqiac7LdWAyKaPDzFmiX5PUlPoIbhDVwVy3tb3OAzt3P7ISvtzHayOA7+O365B3NhHDLpZR/76Z7+1AtS68/fn5OpcHwbt7RZ+ztRq9NaTaPM2dNSzCvO5RkNIq3MX6Nkff5YLRIx61qCLKFPnfrrOBkS1v21oiYe3Cy+S1BS6sPTqOFsl+avWes4+ioy32AHqNA4GcOydNSMPoOk4Y85tV/d/Oe0gQNR1DzeRt65u5Fcv9FFrwNoTWBfN0vN89KiGC7IAc78mJgDbnPdOaxB7zdgWhuy5yv94zoYMwNTx/k51r3hv4TWGfHWIAGAe2tyEdmRGpp41dI0BiG8dB2BfOT1Zg+gbXuhlzG3bf3ljSQbAPV9fL6GpJ2lrCp1UGbEpGdtsxyNt9HsR1g4DqF3PApC/cpMKCb+0iDXk0LTt9U9SAeLfGFlO71oCnLQ1hU5MY9pZIPOPRXn61RBsAkxN6gG2pYNet4JpZLs4I4Zm3sEb30wGLH3n3iahqTNpawq9hN6VtUIj++tqw51cgpObGeLhcWObBgRVjgOSp63NB1ODVyI8+yM8Qkv79u1jgKl89yfb612MkNQUegm9pk3nE3Dgf1V7OPMyVFP/XFXtCXePedDy8hXQFA3FFBysAGqunb05QHCMBchYnQemjncZMTRtu6ZOOQZYmjxws0HnkQYUSU2hn4S738pD3fVLcMcrD6Srh6dMOhISe7s7qebIOnhyfZaiKZqiaSZzXL1m0dajx7bnKGo6YE1JiwjO+WMjkPD01QZ8R2T8OXk+gLn//QNkYrsBKJreFYgAlnjXKhtYek6PveJdrT89fxgqrazj4o/Q8jKT1u/aeXz3vzcFVW8Vk590POn811dXq9iy3F0HgFuer224nn5t0cw5SQB0+7ilvqWIAgb8ZBWBo/IdKbtU7Cun3HXFK++jfx0Dmrh6InDq7FWnTh1MdRS+zXbgwEX3mUtotdpJQK0h1Q0Xmqx58R8NoMEtV7XQuxYBSGoKXUUMq/PpVJW894PGXHpE5CUcG+Y7wHzVFe72LzX7bJ5iX/pLYrL1ynfO27cPsFTe3ramwWLTMeO9dRrA8Ac7RupdjCggqSl0pMS0P/D3YUiaVHlAya3NE7NSgc63hjvztNazZ87OXJqsomWludAFZV+z/cfh91Ux0rniuZPeO+IAqj1wYxXp0jQK6dcU+sp87ZNsCB75UYn7utvm3p4KUctblfhcmsOWf/isY8uMLVbN4SjypR1sPj/wVLF/q30fZwMQbr2w95I5tMmdw+J1XOVZmLry8Y02IKju4+OkfWMc8rcQ+goduPHvfKzz/ndPpdDip22emJ4KjChpKEjLyTi0f/X2pSXcRYlKGNSsZbBdDUIxVSmf8kBBaBLWbks6hOUCjux1Gz5+6KoKYQZo2dk3vr0GIH70G7K/kZFIagp9BXW46+xmB2c/2HB7v/hiYzNzMxA9svjrc3vWkWXLl5R4xrolvn6/0Q0L/Qjb+RZm6nIguM+xA5kaoG6b0HpQ8ya6j6Zb57y8BaDOvRMM0vYVBSQ1hc4iRmjP79PI+/vYsVvLF3Of/H+2AS1rF9MAdORs33Fg/bqMwgdqmMvXK6fYlpxfrhlUs1HF1gNrXfwEF13DVxxTf+7fW1I1IGflytjeo5rX1XNGuWPDP/9NBqj68o1657e4mKSm0FvwyNQXUyB/9/tnHyrmaO+8RQCtKxT5TXX3sj1rdmYUuiWiQbPQ2AatEvK+WHbuloatrulULqKk9Anu0r9C690r9yzZ7gBIm7mibfdOTRL0CqyMRR+tsAHhA4cOl9A0GElNoTvLTdp7BzS0YxNNLxb9gkz7G6jWragr+PxdCxZtTL3QygxtU7N6eJWGdULCwszs+ysHoEqjtlfVrVXEMysAJpMdIKZXJEHNm2QNXzD1kApoyfP+qdd1fENdIsu+7Yc/9tuBhJvG15PQNBpJTaG/mHGRH+3MhfRJsROKekXmzTwG1K52+QX66YVrlx05ez4z47p0qds0OjIo1FIQr1YVKD/ympoJsUVFT0gQQFT1vVaUmE+7BgPmmJ7NW81ZlgRA+sa920bfpMNemyc+mrs/E6DWI6MTjLgDU4CT1BQGEDWy6ifzc9BOv7l5fPvLz8TInwLQqu6lqZk99csD2TnnvgiqO2JoreiQwgMnIWag7p2ti+kOjXoocQPVPwmZ/seJZqP6nhumVuKH9Tq2Y9riTEDLXL5lxZirXF2PVFrZn32UBUD8vbfJzHYDktQURhDZp9Pkt45rWspv+x4aftlI+c+7gUa9LzoBTXPk/PZuYn7BgI45rPbNA2pEBF3SLlM1IDS2uElEQR1Hnsi+azA9X0ivEvFv2oZUKN/86j//nGW1azjOTFtz8z1l2rupnbl9nhUwhd73cIIMnhuRzHIXBmF//70TGphv+U+dsIvTL/uGuQ6Chz7X7N/P+Pz0lEU/bsov+CKsXJcnmxW1oif9loU5Ude+U8IuvsnWqsV8x7Hphz8P5QNE9LuzdfmyOhROS903fgtAWKf/di6jnylcJKkpjCL5w2+PamBu+vTQi7aDU7eM3gf1Xht5PjQdqSkrFm/fUfBFcPnyXXteVfRMTy35uSn3PVHBzZ5B28qPVp+2A0T3H9c91r0ncZF13wdTM4GgOv3+U1t6NA1KrtCFUVR4OuGDgyqO3V+3blA4MKwr04A6nc+/VnM2zdyw9NynfXCT9p2aNS1uz00l4eGwexLcrSeoW+X5P2zPBjLn7HvgujJYnqOdXvj98lwgouujveXi3LAkNYVhhN9WYdY0O9YVPz9ReADGsTULwuvFAqCe2fXPrM0557ozq40e2K7EXZCafFCKeiwNa9T7dXo6aLnb39PGeH2X94yls/46ChAzenwrmW9kXJKawjgiR1Xasksj9xPH/YVaiGl78yCmeUHPon3V2zvOnPtGnbbDhjm9c5xbwvo17LZoXqqGfff/nby+rneTTEt6eSMAodc9U8urP0mUjvRrCgPR0n57/QBQ/oFn//08n//wLmj6TRsTcODDxbsKNjMq165Nn7pVvD8pyHF41meJDlDKNel9fQNvtjIO3bjOBnDVfW1qefHHiFKTtqYwECVuVM7rpzRSJ8Vf2N3dvvEkBDVqaALbVx8lFUzPrHLtiIZRkWWxL5G51tjwD3Y70FJX7g59yIvvl6TR6wAqP3ZNDQPstyRKIKkpDCX6+uNfnNW0E+8rN58bfsnelQbh3SPJW/DW5myAoMgxz8eElFXHnxI32vLZ1jxQU/676Nlu3hmk0dLe/+YIENT0hQFObbwsdCSpKYwl4dVqr5/Q1KRvagwo6MnMztYgvDsZez9dawOUhKduLn5LOS9QYm5q/NGqk3lo2cu7VqvlhdjUcnd/+GsWEHnv03FXvLfQm6SmMBjLuE0/ZePY9mfbygpAVg6gBG/7afJJgIhGI4aVK+OZjMGd2m+ZtHKHiu3VX5/vkeDpC2jrjoVf7waUcnc8Hevh5xZeIKkpjCbkhsSVDvKnR13XNAK07YlAXN6zy/IBS91BN7XWYVKOuc0nC+86oqHtuPO+Zzw8c1Nd8eR6AEKvk9D0CZKawmiCu/wndQekfLz1ngHhWHcfB1PHj5fnA+F3XNXX69Mmi6Y0f3bmIitkTYnt08qTB7I5fn+/IDRbjhiq03+bcI2kpjCc8MH2/xzTyF2R0yGc3FM5YFqxTwVChz7n9kqf0lIq31r9zEYbHH/98CtFb4/slpxJE/cClB85qqe8G32D/J2E8QQNPvxGCmSv+ezZULsVUParoNR+YFAJG3F4v6ou70z+NQ2yZ2bf3tVDY0Lagu/mpwDUfXhkJVl37iNklrswIC1txhv7gMrvjtjz6CIIsoFl7L1NdL6CVZM3/CdRg+A6N99S1SMZt+7ZpTYgYuzdDeTq3GfIaldhQErcmFfrA6c+y9q/C7CBuUn/ZnoHi6lih6ExClj3fLTNVvqn03KmjltiA6XS82+10vu/TThP2prCmPI+eCMdQq+p8RYAlms/Ke4Ay7KV1O+ACgQ9+FJpj8bQdty7AkCp/eHg0tclyo60NYWuUlauTC3yG5Ze3UMg75f3C76sMsi7+3Q4rcIzHSMA2w/ppXwi27pnVwCEdXxiUOnLEmVIUlPoSV3Qp8/XJ6xFfMfSZnwLCzgK9msP7ja6rHZTv4KIWybf00iBU3NL9zw7vx87C6D6LTPukWEg3yJj6EJHWuJ0K5P21GvWuPJlq6+DBqS+eOh8B1L06LAyLq1YpoYvx72ZDT+NLc2GSwf++1seQJWHb5M1lL5GUlPoyLHlN0hMDK7VsGGHRvUvSSHLCO2d7QWxqbTtokN1xQnvPnstbFtytdvPoG6Y+GceEN5v1EAJTZ8jqSl0pNQdNguw7t278LeEri271LnoWjV6TNwrGzWA4H5G2gjI1KLFBgdp3/R2t7FpW/zm2hwg4bZb68uucL5H+jWFjsyN+p7LydwDqz9/cvjry/IKfzu4l6mgrdlxlGEu0AFielcH29q/3Hz48QfHr8gBIm9+rKGEpg+SmUdCT1rWwg/W5HOh+7L2mDsK7wLnWHPtKcD8TztjDZik3jFbJeiGz9xqAWc/92k+oDT7sVakh+sSZUJSU+jMdmrbHwtP5p8729zc9KYmSrk64cEKmMxsH3gcePIxY8zV/Ne0R49A7devdznM7RkHb9sGEDnss9JO+BQ6kdQUBnD0zzUr09LyL3zdvmOzELSoWuUW3wWUn9vWWE1NyBnzpx3zuLdc28ZDyzm5bfJf+QBRjzxikAmowmWSmsIQcrdtXrHqeO7FN1ZpkbgfGPNOZV1qKsnvd6ZAnbeudWFgQMvYum7hygyA4MaDx1f3VmnC2yQ1hVGkLPxj3d4ibo976Xbj9f/l3DAbzHe8WMXpR+Svnz9zhwOAmAHjvXT+kCgLMvNIGEX5kW12L1y+O/+Sm5Xmrb1/fq/LwifMs+GYN6ySk43N/H/mLt9S0JRWKox+sJ5MXvFh0tYUBqKl7t5/Ouvglu3qhZuUag+PLW+0bk0gf/hfYBr1Wl1nasvfNuOv7ec+DmqP6thers59mqSmMBTNbrVnp+0+rWj2g8u2WaHG/eMSDNkw+2t4PkQ/fs8VB4S0rNVT1x7J1ADMzcf0aBAjkzR9m6SmMCC7A7S0Mcs0Yu97NM7NlqY9PcVWzvl+R1el3jUDqDuryRXulz5v0paMgv1JQjrd3a1CqAEbzsIl0q8pDMhigfw5+zWoM9a9Qy8cZ1dPXJ4LQ68fGOudmIq7f+Vp2L+kcQlPr+Wf/O7jlIKWiSmq3kPXRkhk+gFJTWFQGctPgjnBrfnt2vH1ny50APyxN/sm76zGVOpeNzkXfrqj2LEqe3rSkik77AX3jm9272DZr90/SGoKY9JWrbFBTH83ksZxeuvkX+3n/p04vUujS/tFM1LCSn+0mVLj+n82wdaNHYp8E6n5x7cv+eNgwbBWaM06A26oWNqfKAxCUlMYk3XbETA17ObGKzRj8qfHLvTX21d//kj1i2JTPfrH31UeqVrqCk2NOm+CjN9aXV6iI+PI/t0bV54o+Cqiecc+HSsYckhLuENSUxhTzokcsNzcytXZ4OqpVatmHdcApWbb/dvtZMxodVPhfeDtW7+ccyz8zKvVSl1idNP4VPg799I9PByH5286sP/IufPYonr36NwsSvoz/YikpjAmuw0wt3N5CY191UuJ+YBS9doBDfbffRjtyILetf79vnr0ux8yyPx5bOlT01y7eirsOxZ/0a3ayTmz1506P+HU0uXmHrUNcniH8BBJTWFMigLgahNN2//RX/scQOig+1rEmyoOnajBvKtuujBio538amoGoJ295JF7xzPqXtd+mKVhnc3gONKi0G25u39enpR8rlOVCgMHtq4T4uJ/gzA6SU1hTJoGru+affqJ+dmAEv9L8zgzREZowNnE3AupeeyRBekAlS9pauaNX0rDHNf2y1QqNQzPIX/5v+fy5i74eOfZ3HN9qqZqY0bUi5H15v5HUlMYU0Fb0+Hag7betFMFIurd0z4SIGU6ANnn2n5a6vTXTqgAEXc1Lfw4NfW+pRqT7C+5NkYU3qT8YfKXnE5Ac6DZM9Z9vixLA1CCo5td1bderEm6M/2RpKYwqIIViC495OTze1RQYp6/u2CTJO270wA4rJoCOA5++HOyBoTVuOe2i7ZROvPSHxpooa52QHZucETTkqbflHn0iM26Z/bugpBXwuoMvunSs+OE/5DUFAalANivdK/CHF8ts4Gp6qDzx6BlLS7YZWhu61GxQOa3P6VooFTs92izwnFsP7p2QT4Q18LV8yKrNluVQ/qa41vWnbpwm7lyndY3tpIBID8mqSkMquBS14UHODbNzoDgtjcPqn4uE3fuK2j8JX2QcHWwI2nZ3FQNwlrfMOyiCZz2nZ9NS9WAhs1dfTuEDpx1AOu0QpsphzRq37VHNclMvyapKQzK1TF0R9IXOzSU+q/2Ph+JjsXJ5/61a1bv4Pz5r5zSIKLPw90vGqFx7Pxw1hkNoGZNV2vMT4kC/g1Nc4NBAzrJcUD+TlJTGJimXvk+56k712RD+NAeF9qROVsyz39vvu3ADzNPaxDS/5EOF4Xm2bk/rsjQAGKbxLhc4Kyt//7bXLFN17ZtyskAkN+T1BTGFBQMqBs7Ov2A/PX7NJRat/6biRmpdgAFTZmQ/PG0ZA2CP+lZ86LQzPp50rZzi3ji67j8bpi87Nwso0bNWsTG1KxWMVzWTQYASU1hTGE1ojOwL77D2S5Cx65VOWAaUGgepqoBlB+QvrRar/emn9XA3KNP7Ysflv32ofMjTpWauTq30t65wSmg7ph2DePDzOYgaWYGBklNYUzBrWptRd14wtm+Ru30USDs9kJ7JBVMlI8fMcB08qXpeUD4h6MvPrdNy733gAbmkDwVJaaiq6lnadEx8SRUGldXmpiBRP7awqCa1ALyjzp7d9vO3cDAwiGrKIBSu0uU7Ymf80CJHNAivHAwaunb7vpDg5AuTYMgopnr+x8r91YEFJO8jQKK/LmFQUWXM0PmcmfHgzKSANoUnoeZZwPCGlawbUq0gylu4GOtCn9bTfrw6h9tENxlQlQ+lOvkxuJHRcG1MSvhB+QKXRhUWLO4FHLWZUU7dW/t+DogakDhfduPnAViWisrH98GSuVhY9sWzkXbts9mpgDUHF85DYi5aI2lk+TYrUAkqSkMytKxUgr2Y2ecS0318B6gTa1CN9lXHwaiGmXN2A4kPDq8ZuGWpnbo7Rl5QFCH27p/nwSmim6dtQHnl8yLgCGpKYyqSiTgyHfuzrbjGcBVhc/L2LsiAwiOmjfXCuVevunigaCTn8zJA4K6v9IpcdlZCOvm+mzNc7Pw5Qo9wEi/pjCqiCAgba9zd87aANCwUGvSvmy1BuYqJz/fq0HVEReHZuZv32UA0eP+rxMbtmlQ/gZ3TinXNECRd1Fgkb+3MKroWsGQvN65DTxSVgGVahVKvr1/pAEhlT5eA8R8dcn1t3XpGaDej2+0NufvOQ7K4Hru1FhwcS69m4FFUlMYVVj3aMjcdumm60VSj+4BOlb9t4fRunqJBii5C3NBGdf6kpZk+kwg6oW+FUzknnWAcr07Tc2CvNQkNQOLpKYwrB4xoKWnOHNX7YwKdCrUNXnw+1wA255MUGreeWkHfl4EBLVtGATk5wC4t+dGwRW6W4ErfJakpjCs+GgFDm1zqiVngouulLMXrwTAuhUoN67SpfcPm6Ao7SY0MYG2bwMQHn/pPZxikvmaAUjG0IVhxbTbZufEjqFhV75rwQt5X+aFIZ+979v+/WaPUZfNKqo9/ihDRwDk79gDtK/oVolaof8VgUJSUxhW0IAf7OQczXIiNU0VYtLhzwZ3F+zGnvvn7H3/frPCsHqXX1NV/urcPzJ2WMF8o5wkKZwlqSmMq74ZsNmueD9QqrVfCCffPzSoiQX7/sXTDhRq/9WpU9JayVPrVajWu5SligAiqSmMK1oBjpys4sRdE0auyoGTkxdWMKGePZJd+KK5ae0Suu8dR3YDHdzr1iy4OJf5mgFGUlMYV3ytrbB5UwsnXqXBHQYsToe8xMQLtyjnlhVV65pQwpLHzD8ywNLTmb7TIhTs3uHi+cPCx8mnpDCuyCFA+sZUJ+5qbvp4v4hC4aiEVYs998+qtUp6lScv1CCqqRv7HQHk2JGZRwFHUlMYlzI+BrSFic6MUYd0/u69VnHnczOq3pNPW8/9s19JW8BpRxOBq+q790bIW3cWXDtJU/g+uUIXBpbQfxoc2NAm3Jk7h93SbO1vWQAEDerS5utzi4qqdyvp0dpZgJbObax0uX2ZYKkY6+ajhW+S1BQGFjR6hh37T1c3cOrewZ0733xGA5SoBFPa+ZWY8bVLegyZAMFuXnNlb86A6I4RV76n8COSmsLATC2bbYaN25w+PTL+wlh4+u5z/wgqcaBHXQ2ElXfzfZCVD0Q2kndRYJF+TWFkVcaYwfqnk5tsFqKdPndSeVCVEvfNzJgLVKnl7EmYF7MfSQNCqktqBhZJTWFk4d1qAP+ku/xAx9EjBf+I6xxZ0v1mHQXa1nJvPEc9kAIEubOdsfBhkprCyJQa3YD9h1x+oCO5oH1qqj+0pNd4/i8OCG5d2b3q7FuOQ3BHt4/OEL5JUlMYWmQNwJrs8uNylhf8f9jAElf9nF0PNOkQ6kZlwNnjVrBIt2agkdQUhhYSawL2uPy4038X/H/s9SXOWkq1AY0buHeBbtu5Dwjt4+a6IuGrJDWFoQXXrAjMdGYHj8K0E4cL/tG2Ron3UwBMbq7t0Y4dB+Kruvdo4bMkNYWhmWvXBTYvc+70oH9lnPv/gSXvAFdwgoWbuwqfXX0c6OfuDHnhqyQ1hbHVaWuG3LdcHUU/f83dpeS77bMDFvcWoWuJ/wDhA9xcwi58lqSmMLaYjtVBW/fedtdam+cu6ZuXPDpuX2CF0Mrure2xJe4H2vd2b66n8F2SmsLYzD26BkHG92tc2o5N2wCApW/JIzWZ621Qqblbwzna8WXZwPASp4MKfySpKQwufkAdE9qJpbmuPCh3PgCNxpS870damgbVmrv1LtAOLwRo6s5jhU+T1BQGFzLqo+pgO+1Sz2bqZgDGNS15eNyhAcHuzRzKnnYc6FxbtokLOJKawuCU0KrBgNWltua+gl7QuCtMQI+OUWDlVznu1HVqpgZhPd07R134MklNYXgJ0QrsX+3C/CD1dwCC46/w+jY/Gomp921ujedsOgp0vNG9E4GFL5PFYMLwottvs3J8yQDnV4tnFaynbFTnCvPX469fcCJkSEN3irJOBEJG1JUL9MAjqSkML3jUtFQcy1Zc6/QanuQjAOaB1a+YaZPSzG7NUrf9uQqo3czNFezCl8kVujC+rt2BI/NOOP2ATTaAmlfFXvGeSpx7S3vS/mcFU88m8gYKQPJHF8YX8kgwqPO2ODtl07YoD6BjA2+9vG2rnt4M1Oqb4KUfIIxMUlP4gPYDgBO/OrthXOp6G0AFr01At/70cw4E9+4uZ/oGIklN4QNCHg0BbcZe54bR85cc1wDCvLXW0frrnGwwNRgY66UfIAxNUlP4AKX59QqkfZZx5bsC2p5sgIRGTh0I7Drb6smHNJSOc0eWvKGS8FOSmsIXxN4SD/x+wKk756xKB5TmrbwzQ0Q7s2y7A2JGVpBZR4FJUlP4AlOjoSbImevUnbOsANF9mninFuvSb1KAzndKSzNASWoKn1BxYBwwNc+Z+zpUQGk20Dvdmqmzpx8CKtwpB18EKklN4RPMTdoCe+c7c98DZ4CILs29Uoi265nfHBAyoJfsqxmoJDWFb6jZzgK2j53Yw8Ox+ihQ+Wqv7LGeP/HFAyqYmt0kB18ELElN4RsiutQHNs6+8j2z9mWCqWprb1Rh/fSNxQ4IevCzHrIYOWBJagrfYOra1Qxp31x5V7dTp1QIaR/j+Rqs865+6ThganJVCy/NahI+QFJT+IjYYfXAsfkn7Qr3s207CIS18/i0IM16avrKdA3C/7NosHRqBjBJTeEr+nYJhlO/Hr1SbKacASwe3/dSO/vdwMn5YEoYOCRa3jeBTP76wleEja4G6oo3E0s+rTIv8TQQVsXTPz7t5/f2qqDUef2nXnKYb0CTLm3hM3p1O2ol47vMZxuUdPWdnQYo9Z3fwtgptt2zvjykgWXwyOslMwOcpKbwGaHjN29XyZ6d8HDVEmIzPxdQOnt2v6Ochd/PywIsDZ9v69EnFj5IrtCF7+jweAJoad9tK2nvo6BgQKnr0R+c9+urf2YDoc0mePaJhS+StqbwHeZroh5PhJRn/pkQX+ydYgau365c29WDP9a+Y8rMJDsQ2vvuXl6Y0CR8jKSm8CERA7PvzUDbckR9pFxx9wkfumSn5eXanvuhtsVvbchSQal0zy2VZccOgXKlaRxCGIi6/43pmUD1mY1Di+3btNoI99xszdxfXjyiAsGNbrslzmPPKnyYpKbwLZkfvpmtQdSNj9cskwsl+5LxSSooUT0e7CkNTQFyhS58TUjnXssyIfP79OeaeH9XYMeJTY8eAIJqX/dUlNd/mvANkprCtwR3tTSYdlQjd26FR2t4OzZta77/NRWIGThqgNeObhO+Rq7Qhc9Jf+PrZCDumtGdvbpdm+Pwou/X5Wko0WOerCmnXYjzJDWFz7EfXvtCIhDS+uM2Xgwz+4YvFhx3AOHDnm0qoSkukNQUPkid++AhFYJaD36g2BlIpaSdmvbTlhwNlHLXPdBQFlGKf0lqCl+U9/3zpwCiWz04wjt98/ufX5xqB5S6D1xXWZbQiUIkNYVPyp3/8g4rYIru83Anj7cE7dmfvXvGDijhg96pZJHLc1GYpKbwUenvfnJGA8LG3V/Hg5PaAfX0rInbHYASUu/222UJpbiEpKbwUfbtP87bYwWUWvdc3chze6vbTu2Z/luKCpgT+jzW3OyxJxb+QlJT+CzHsql/ntAAS6cbuzXyzGW6bfe6pUuOq4AS3XHokBrSoykuI6kpfFjGr/Nn5gGE9BrUv1Hpn892dNGMlekABDcfObSJZKYogqSm8GXqlmeW5QIosQMe6FDK5qZtx+8b1p/SNICoYbd2DSt9fcIfSWoKn5a7b8HXu1SAsPpX3dmoFI1Dx54pi/ZkFLwfgnre1b6G9GiKoklqCh+XfXDmpCMaQESNEQ9Vcvdpjn0y82iWBmCKGzSyRTWZ1y6KI6kpfJ1mPf3epBwVIKTcwOHVK5YLca3JqeFI+/zjs/kAmMM739cjWtqZoniSmsIfnHhsdtb5l3JU1zvax4c7HZzWlBMnlv54UgNQIioNvL25bAQmSiSpKfzC2U9mJaaffzFbGl/XpUnFK7YXNZtNVY+unbo6s+BrJbbe4DurerFI4R8kNYV/cOydtnjLhdwkbsSg5hXDg4pdM5Sbq2XuO5jisC5eYy+4RYlp2Xd0Xbk0F1ckqSn8hW3XvK0bDuec+0qp0KlOpZZdLt+AU8vLyTt5+p+zpGw+mP/vzeGd+w9sItfmwgmSmsJ/2E5v33v82OoDjnNfh9XtOLj1udajRkG7M3Pt5uT806m7Lz5SPbrD8G5NZdhcOEVSU/gVa27Gvi3zV2ac+9JUp8q5YaHzqZl/5LT14oeY6vRrUL2hbKEpnCWpKfyNmpeS9PVU65XvCIC50ZhB1SKDpT9TOE1SU/ghNXvPx3+e0bTiX92KohDdZVglc/kacSGyf6ZwhaSm8E9q+vF/ftiebrvsG0pIRJBiGtKiVXRCORn9EW6Q1BT+K3fetL2XxqYS2apfLVNcFdnOSLhLUlP4M2tKpqKhaIqmoAGKZo6NlRamKBVJTSGEcIVcpwghhCskNYUQwhWSmkII4QpJTSGEcMX/A+4DJVlQRluhAAAAAElFTkSuQmCC;" vertex="1" parent="1">
          <mxGeometry x="80" y="90" width="613" height="457.11" as="geometry" />
        </mxCell>
        <mxCell id="bh7TPUg2LEr0Y-XiBr-3-3" value="" style="rounded=0;whiteSpace=wrap;html=1;fillColor=none;strokeColor=#B85450;strokeWidth=2;" vertex="1" parent="1">
          <mxGeometry x="80" y="220" width="100" height="60" as="geometry" />
        </mxCell>
        <mxCell id="bh7TPUg2LEr0Y-XiBr-3-4" value="" style="rounded=0;whiteSpace=wrap;html=1;fillColor=none;strokeColor=#B85450;strokeWidth=2;" vertex="1" parent="1">
          <mxGeometry x="160" y="150" width="140" height="90" as="geometry" />
        </mxCell>
        <mxCell id="bh7TPUg2LEr0Y-XiBr-3-5" value="" style="rounded=0;whiteSpace=wrap;html=1;fillColor=none;strokeColor=#000099;strokeWidth=2;" vertex="1" parent="1">
          <mxGeometry x="150" y="200" width="140" height="100" as="geometry" />
        </mxCell>
        <mxCell id="bh7TPUg2LEr0Y-XiBr-3-6" value="" style="rounded=0;whiteSpace=wrap;html=1;fillColor=none;strokeColor=#66CC00;strokeWidth=2;" vertex="1" parent="1">
          <mxGeometry x="190" y="100" width="100" height="60" as="geometry" />
        </mxCell>
      </root>
    </mxGraphModel>
  </diagram>
</mxfile>
